<?xml version="1.0" encoding="utf-8"?>
<!-- Generator: Adobe Illustrator 21.0.0, SVG Export Plug-In . SVG Version: 6.00 Build 0)  -->
<svg version="1.1" id="Calque_1" xmlns="http://www.w3.org/2000/svg" xmlns:xlink="http://www.w3.org/1999/xlink" x="0px" y="0px"
	 viewBox="0 0 500 600" style="enable-background:new 0 0 500 600;" xml:space="preserve">
<style type="text/css">
	.st0{fill:none;}
	.st1{fill:#F0F0F0;}
	.st2{fill:#050505;stroke:#000000;stroke-width:2;}
	.st3{filter:url(#shiny);}
	.st4{fill:#FFFFFF;filter:url(#Adobe_OpacityMaskFilter);}
	.st5{mask:url(#mask6_1_);}
	.st6{fill:#7E0001;}
	.st7{fill:url(#SVGID_1_);stroke:#050505;stroke-width:5;}
	.st8{fill:#EFD807;stroke:#696969;stroke-width:2.5;}
	.st9{fill:#FFFFFF;stroke:#696969;stroke-width:2.5;}
	.st10{fill:#EFD807;stroke:#696969;stroke-width:2.9999;}
	.st11{fill:none;stroke:#696969;stroke-width:2.4999;}
	.st12{fill:#EFD807;stroke:#696969;stroke-width:3;}
	.st13{fill:none;stroke:#696969;stroke-width:2.5;}
	.st14{fill:#F8C300;stroke:#696969;}
	.st15{fill:none;stroke:#696969;stroke-width:1.6;}
	.st16{fill:#F8DE00;stroke:#696969;stroke-width:2.5;}
	.st17{stroke:#696969;stroke-width:2.5;}
	.st18{fill:#EFD807;stroke:#696969;stroke-width:2.4999;}
	.st19{fill:#EFD807;stroke:#000000;stroke-width:0.7;}
	.st20{fill:#EFD807;stroke:#000000;stroke-width:0.5;}
	.st21{fill:none;stroke:#000000;stroke-width:0.5;}
	.st22{fill:#808080;stroke:#696969;}
	.st23{fill:#F8E504;stroke:#000000;stroke-width:0.5;}
	.st24{fill:#EFD807;stroke:#000000;stroke-width:0.65;}
	.st25{fill:#EFD807;stroke:#696969;}
</style>
<filter  height="150%" id="shiny" width="150%" x="0" y="0">
	<feGaussianBlur  in="SourceAlpha" result="blur1" stdDeviation="4"></feGaussianBlur>
	<feSpecularLighting  in="blur1" lighting-color="#696969" result="specOut" specularExponent="20">
		<fePointLight  x="300" y="300" z="500"></fePointLight>
	</feSpecularLighting>
	<feComposite  in="SourceGraphic" in2="specOut" k1="0" k2="1" k3="1" k4="0" operator="arithmetic" result="highlight">
		</feComposite>
	<feOffset  dx="14" dy="14" in="SourceGraphic" result="offOut"></feOffset>
	<feColorMatrix  in="offOut" result="matrixOut" type="matrix" values="0.2 0 0 0 0 0 0.2 0 0 0 0 0 0.2 0 0 0 0 0 1 0">
		</feColorMatrix>
	<feGaussianBlur  in="matrixOut" result="blurOut" stdDeviation="10"></feGaussianBlur>
	<feBlend  in="highlight" in2="blurOut" mode="normal"></feBlend>
</filter>
<pattern  y="600" width="107.8" height="194.2" patternUnits="userSpaceOnUse" id="pattern5" viewBox="0 -194.2 107.8 194.2" style="overflow:visible;">
	<g>
		<rect y="-194.2" class="st0" width="107.8" height="194.2"/>
		<g>
			<polygon class="st1" points="0,0 107.8,0 107.8,-194.2 0,-194.2 			"/>
			<g>
				<circle class="st2" cx="26.7" cy="-14.6" r="4.9"/>
				<circle class="st2" cx="17.5" cy="-26.7" r="4.9"/>
				<circle class="st2" cx="35.9" cy="-26.7" r="4.9"/>
				<path class="st2" d="M25.7-29.1C21.9-63.3,13.8-85.7,4.9-87.4c6.3,0.3,12.3,2,17,4.9c0-5.6,1.7-10.9,4.9-14.6
					c2.6,4,3.8,9.3,3.4,14.6c5.2-3.1,12-4.8,18.9-4.9c-9.2,0.9-17.4,23.4-21.4,58.3H25.7z"/>
			</g>
			<g transform="translate(111,200)">
				<circle class="st2" cx="-30.4" cy="-311.7" r="4.9"/>
				<circle class="st2" cx="-39.6" cy="-323.8" r="4.9"/>
				<circle class="st2" cx="-21.2" cy="-323.8" r="4.9"/>
				<path class="st2" d="M-31.4-326.2c-3.8-34.2-11.9-56.6-20.9-58.3c6.3,0.3,12.3,2,17,4.9c0-5.6,1.7-10.9,4.9-14.6
					c2.6,4,3.8,9.3,3.4,14.6c5.2-3.1,12-4.8,18.9-4.9c-9.2,0.9-17.4,23.4-21.4,58.3H-31.4z"/>
			</g>
		</g>
	</g>
</pattern>
<g class="st3">
	<defs>
		<filter id="Adobe_OpacityMaskFilter" filterUnits="userSpaceOnUse" x="-51" y="-49.6" width="587.5" height="684.6">
			<feColorMatrix  type="matrix" values="1 0 0 0 0  0 1 0 0 0  0 0 1 0 0  0 0 0 1 0"/>
		</filter>
	</defs>
	<mask maskUnits="userSpaceOnUse" x="-51" y="-49.6" width="587.5" height="684.6" id="mask6_1_">
		<path class="st4" d="M0,1.5v388.3c-1.2,20.9,0.6,40.9,10.4,60.7c9.8,19.8,26,38.8,47.6,56.1c21.6,17.3,48.8,32.9,80.1,46
			s66.8,23.7,104.6,31.3c37.9-7.6,73.3-18.2,104.6-31.3s58.4-28.7,80.1-46c21.6-17.3,37.8-36.3,47.6-56.1
			c9.8-19.8,10.5-40.4,10.4-60.7V1.5H0z"/>
	</mask>
	<g class="st5">
		<g>
			<g>
				<rect y="1.5" class="st6" width="485.4" height="582.5">
				<title>Field</title>
				</rect>
			</g>
			<g>
				<g>
					<pattern  id="SVGID_1_" xlink:href="#pattern5" patternTransform="matrix(0.4854 0 0 -0.4854 -4136.6602 -12604.2207)">
					</pattern>
					<path class="st7" d="M-48.5,171.4h218.4V-47.1h145.6v218.4H534V317H315.5v315.5H169.9V317H-48.5V171.4z"/>
				</g>
			</g>
			<g>
				<g transform=" translate(35,30) scale(0.7, 0.64285714285714) ">
					<g>
						<g>
							<path class="st8" d="M67.5,18.7c0,0-4.6-2.8-6.9-3.1c-1.7-0.2-3.9-0.2-5.5,0.1c-2.3,0.4-5.7,3-8,3.3c-1.1,0.1-2,0.3-2.8-0.4
								c-1.4-1.2-0.3-3.7-1.2-5.2c-0.4-0.8-1.5-1.6-2.3-2c-1.1-0.5-2.7-0.9-3.9-0.8c-0.7,0.1-2.2,1-2.2,1s2,1,2.5,1.7
								c1,1.5,0.2,4.3,1.2,5.8c0.4,0.6,1.3,1.3,1.9,1.7c0.7,0.4,1.6,1.1,2.3,1.3c1.8,0.4,4.4,0.4,6.2,0c2.2-0.4,4.6-2.8,6.8-3.3
								c1.7-0.3,4,0.3,5.7,0.6c1.3,0.2,3.9,1.3,3.9,1.3L67.5,18.7L67.5,18.7z"/>
							<path class="st9" d="M51.5,9.5c0.2-0.7,0.4-0.5,1.1-0.7c0.7-0.2,0.7-0.4,1.3,0.1c0.5,0.5,0.7,0.3,0.7,1
								c0.2,1.7,0,3.5-0.7,5.1c-0.3,0.7-1,1.6-1,1.6S52.2,15.8,52,15C51.4,13.3,50.9,11.2,51.5,9.5z"/>
							<path class="st9" d="M52.3,22.8c0,0.7,0.2,0.6,0.8,1c0.5,0.5,0.5,0.6,1.2,0.3c0.6-0.3,0.7-0.1,1.1-0.7c0.8-1.6,1.1-3.3,1-5
								c0-0.7-0.5-1.8-0.5-1.8s-0.7,0.5-1.3,1.2C53.5,19.2,52.4,21,52.3,22.8z"/>
						</g>
						<g>
							<path class="st10" d="M36.6,116.1c0,0-5.5-4.2-5.4-6.5c0-0.7,0.8-1,1.1-1.7c0.3-0.8,0.4-1.6-0.1-2.2
								c-0.8-1.1-2.9-0.8-4.2-0.5c-1.8,0.4-4.7,3.1-4.7,3.1l-0.7,4.4l6.2,5.6C28.7,118.2,36.6,116.1,36.6,116.1z"/>
							<path class="st10" d="M100.2,128.1c0,0-18.3-3.1-26.2-2.9c-1.8,0-4.6,0-6.2,0.9c-1.4,0.8-2.9,2.7-3.6,4.2
								c-0.8,1.7-2,4.3-1.2,6c0.7,1.6,4.9,2.7,4.9,2.7s-4,1.2-5.7,0.7c-1.2-0.3-2.5-1.6-3.3-2.6c-0.5-0.8-0.9-3.1-0.9-3.1
								s-1.6,1.6-2.6,1.8c-1.3,0.2-4.1-0.3-4.1-0.3s1.3-1.1,1.7-1.6c0.8-0.8,1.6-1.9,1.8-3.1c0.2-0.7-0.6-2.3-0.6-2.3
								s-0.3,1.4-0.7,1.9c-0.6,1.2-1.7,2.6-2.8,3.3c-0.6,0.4-1.8,0.3-2.3,0.9c-0.6,0.7-1.1,1.1-0.8,2c0.1,0.7,0.4,1.7,1.1,1.9
								c0.5,0.2,1.5,0.6,1.9,0.4c0.3-0.2,1.2-0.5,1.2-0.5s-0.5,1.4-1.5,2.2c-0.5,0.5-1.5,0.5-1.9,0.6c-0.2,0.1-1.2,0.4-2.2-0.1
								c-0.9-0.5-1.7-1.6-1.8-1.8c0,0-1.4-1.6-1.6-2.4c-0.4-1.4-0.2-3.2,0.1-4.5c0.2-0.7,1-1.5,1.2-2.2c0.1-0.6-0.3-1.5-0.1-2.1
								c0.2-0.7,0.1-0.6,0.1-0.6s0.4,0.6-0.2,1.5c-0.7,1.1-2.5,3.8-2.5,3.8l-1.7-2.5l-0.2-2.5c0,0-0.1-0.9,0.1-1.1
								c0.3-0.2,0.8,0.3,1.1,0.2c0.8-0.3,0.7-1.9,0.7-1.9s0,1.5-0.8,1.8c-0.3,0.1-0.8-0.3-1-0.1c-0.9,0.7-0.2,2,0,3.7
								c0.2,1.3,0.9,2.5,0.4,3.3c-0.3,0.7-2.2,1.2-2.2,1.2l-5.7-2c0,0-1.7-1.7-1.9-2.6c-0.2-1.6,0.7-5.5,0.7-5.5l-0.4,0l-2.4,2.3
								c0,0,0,3.5-1.1,4.1c-0.8,0.4-2.9-1-2.9-1l-5.1-4.7c0,0-0.3-1.8,0-2.6c0.5-1,3-2.3,3-2.3l-2.5-1.3c0,0-3.2,1.7-4.5,1.2
								c-0.6-0.2-1.1-1.2-1.4-1.8c-0.5-1.2-0.7-4.3-0.7-4.3l4.8-7.4c0,0,1.8-0.2,2.4,0.2c1.2,0.9,2,4.7,2,4.7s4.6,2.6,6.8,2.8
								c2.3,0.2,5.3-1.3,7.7-1.5c1.6-0.1,3.7-0.1,5.2,0.3c0.5,0.1,1.3,0.5,1.7,0.8c0.9,0.8,1.8,2.1,2.5,3.2c0.6,1.1,0.7,2.8,1.4,3.7
								c0.4,0.5,1.6,1.3,1.6,1.3s-2.3-3.5-3.2-5.1c-1-1.9-1.7-5-3-6.7c-0.4-0.5-1.5-0.8-1.7-1.5c-0.5-1.2-0.3-3.1,0.2-4.3
								c0.1-0.1,0.5-0.2,0.5-0.4c0-0.7-1.4-1.2-1.7-1.8c-0.8-1.5-1.3-3.8-1.2-5.4c0-1.5,0.5-3.6,1.5-4.7c0.8-0.8,2.5-1,3.7-1
								c1.6,0,5.2,1.5,5.2,1.5s-2.7,0.4-3.7,1.1c-0.6,0.4-1.5,1.4-1.6,2.2c-0.1,0.4,0.2,1,0.4,1.5c1,1.7,4.4,4.9,4.4,4.9
								s4.1-1.2,5.9-1.3c2.3-0.2,5.4-0.2,7.7,0.1c1.2,0.2,2.8,0.7,3.9,1.2c1.4,0.6,2.9,2.2,4.4,2.3c0.9,0.1,2.1-0.6,2.9-0.9
								c0.9-0.4,2.2-0.8,2.9-1.5c0.6-0.6,26.3-9,18.9-14L80.7,78.4l23.4,14.4l10.7,16.2L100.2,128.1L100.2,128.1z"/>
							<path class="st11" d="M42.5,104.3c0,0,1.6,0.9,2.3,1.1c0.7,0.1,2.3,0.2,2.3,0.2"/>
							<path class="st11" d="M49.5,108.7c0,0-1.4-0.9-2-1c-0.8,0-1.9,0.2-2.4,0.7c-0.7,0.5-1.3,2.5-1.3,2.5"/>
							<path class="st11" d="M50,110.7c0,0-1.6-0.5-2.2-0.2c-0.9,0.4-1.6,1.8-1.9,2.7c-0.2,0.5-0.3,1.7-0.3,1.7"/>
							<path class="st11" d="M51.7,113.3c0,0-1.9,0-2.5,0.3c-0.6,0.3-1.3,1.2-1.6,1.8c-0.4,0.9-0.5,3.1-0.5,3.1"/>
							<path class="st11" d="M30.9,124.9c0,0,1.5-1.2,2.1-1.6c0.8-0.5,3.1,0,3.1,0"/>
							<path class="st11" d="M23.3,120.6c0,0,0.9-1,1.5-1.1c0.7-0.1,2.4,0.4,2.4,0.4"/>
							<path class="st12" d="M16.8,4.8c0,0,1.3-5.8,3.2-7.3c0.6-0.4,1.5,0.1,2.4-0.3c1-0.4,3.3-1.2,3.4-2.3c0.2-1.1-1.5-3.4-1.5-3.4
								s-3.4-2.5-5.1-2.5c-1.9-0.1-5.8,2.2-5.8,2.2l-0.8,5.1C12.5-3.6,16.8,4.8,16.8,4.8z"/>
							<path class="st12" d="M86,32.5c0,0-12.2,30-35.6,31.4c-4.3,0.2-10.1-1.6-13.8-3.7c-1.9-1.1-5.1-5.1-5.1-5.1s-3.4,2.1-3.9,3.6
								c-0.4,1.1,0.2,2.8,0.7,3.9c0.5,1.2,2.6,3.4,2.6,3.4s-3.9-0.8-5.1-1.8c-1.3-1.1-2.3-3.3-2.8-5c-0.5-1.5-0.4-3,0.2-4.4
								c0.5-1,1.9-3.2,1.9-3.2s-2.6-3.4-3.7-5.1c-0.9-1.5-2.5-5.3-2.5-5.3s-1.4,0.5-1.9,0.8c-0.4,0.3-1,0.9-1.2,1.4
								c-0.3,0.7-0.6,2-0.1,2.6c0.5,0.7,2.7,0.8,2.7,0.8s-0.9,1.3-1.5,1.5c-1.3,0.2-3.3-0.6-4.1-1.6c-1.3-1.5-1.6-4.5-1.3-6.5
								c0.2-1.2,1.2-2.6,2-3.5c0.8-0.9,3.4-2.3,3.4-2.3s-2.2-1.9-2.6-3.1c-0.3-0.8,0-2.1-0.3-2.9c-0.4-1.1-2.1-2-2.2-3.1
								c-0.5-3.3,4-10.6,4-10.6s-2.5,6.2-4.9,7.4c-1.1,0.5-4-0.3-4-0.3l-2.9-6c0,0,0-2.2,0.7-2.7c1.6-1.2,6.6,0,6.6,0l-4.4-0.9
								L6.7,7.4l3.4-2c0,0-3.9,2.5-5.7,2.1c-1-0.2-2.5-2.4-2.5-2.4l0.5-5c0,0,0.8-2.3,1.8-2.5c2.4-0.3,6.4,5,6.4,5l-4-3.9l1.1-2.1
								L11.6,0L7.7-3.6v-3.6L9-7.3c0,0-2.5-0.4-3.1-1.1c-0.6-0.9-1-2.2-0.5-3.2c0.7-1.5,4.9-2.6,4.9-2.6s3.9-0.5,4.9,0.4
								c0.9,0.8,1.3,2,1.3,3.2c0,1-1.6,3-1.6,3s1.7,5.8,3,8c1.4,2.6,3.9,5.9,6,8c2,2,5.4,3.8,7.4,5.9c3,3.1,6.5,10,8.8,13.7
								c3,4.7,10.6,9.2,10.6,9.2l35.4-9.8C86.3,27.4,86,32.5,86,32.5z"/>
							<path class="st13" d="M25.2,52c0,0,1.7-2,2.4-2.9c0.5-0.7,1.3-1.6,1.9-2.1c0.4-0.4,1.5-0.9,1.5-0.9"/>
							<path class="st13" d="M19,41.2c0,0,1.5-0.8,2.2-0.9c1-0.3,2.6,0.1,3.5-0.3c1.2-0.6,2.2-2,2.9-3.1c0.5-0.7,1.2-2.6,1.2-2.6"/>
							<path class="st13" d="M16.8,34.5c0,0,2.5-0.2,3.6-1.3"/>
							<path class="st13" d="M16.7,20.3c0,0,2.1,7.6,4.9,9.6c2,1.5,6.2,1.9,6.2,1.9"/>
							<path class="st12" d="M-3.7,58.5c0.6-0.1,1.6,0,2.1,0.3c0.4,0.2,0.9,0.7,1.2,1.2c0.6,1.2,0.4,3.2,0.9,4.4c0.9,2,4.2,6,4.2,6
								L-3.8,71l-6.7-5.6l0.8-3.1c0,0,1.4-1.7,2.2-2.2C-6.4,59.4-4.9,58.6-3.7,58.5z"/>
							<path class="st14" d="M-3.7,58.5L-3.7,58.5z"/>
							<path class="st12" d="M73.1,46.5l-32.6,5l-34,13.4l-9.5,4l-2.5-1.7c0,0-1.8-3.6-3.2-4.5c-0.9-0.6-3.6-0.6-3.6-0.6l-3,7.6
								c0,0,0.3,1.9,0.9,2.6c0.5,0.6,2.5,1.3,2.5,1.3l2.7-1.1c0.4-0.3,7.9,0.5,9.2,1.3c0.3,0.2,1-0.5,0.9-0.8
								C0.7,72.5-0.5,73-1.5,73c-1.3,0-2.1,0.4-2.6,0.3c-2.3-0.2-2.4,0-4,1.1c-0.7,0.4-1.3,2.5-1.3,2.5l5.9,7.6c0,0,3.3,1,4.4,0.2
								c1.3-0.8,1.1-3.5,1.9-4.9c0.6-1,1.8-3.4,2.7-2.7c0.9,0.6-1.9,1.1-2.9,2.6C1.5,81.7,2,84.5,2,84.5l2.5,3c0,0,5.5,0.5,7.6-0.4
								c0.3-0.1,0.8-0.5,0.9-0.8c0.1-0.7,0.9-3,0.3-3.8c-0.8-1.2-2.3-1.9-2.3-1.9s-0.3,0.1,0.1,0c1.1-0.2,2.3,1.8,2.3,1.8l5.1-3.8
								c0,0,0.3,1.3,0.2,1.8c-0.2,0.9-1.5,2.7-1.5,2.7s3.1-0.3,4.7-1.2c1.2-0.6,3.5-2,4.1-3.3c0.4-0.8,1-1.6,1-1.6s0.2,2.8-0.3,4.3
								c-0.3,0.9-1.7,2.2-1.7,2.2s1.8,0.1,3.3-0.2c1.4-0.3,2.5-1.1,2.9-1.2c0,0,1.8-0.9,3-3c1.2-1.9,0.5-1.9,1.9-2.6
								c0.3-0.2,0.4,1.5,0,3.3c-0.3,1.5-1.3,3.2-1.3,3.2c1.7-0.2,6.8-1.7,8.8-3c3.4-2.4,4.9-7.7,5.6-7.4c3,1.4,10.7,1.6,13.1,3.9
								c2.3,2.2,8.1-1.5,11-0.2c4.7,2,12.2-21.2,12.2-21.2l-5.3-8.8L73.1,46.5L73.1,46.5z"/>
							<path class="st12" d="M95,94.6c-2.1-0.5-5.2,0-7.3,0.6c-1.2,0.3-3.7,1.6-3.7,1.6s2.8,1.5,4,2.1c2.5,1.1,6.2,1.6,8.5,3
								c2,1.3,4.2,3.7,5.7,5.6c1.7,2.1,4.8,7.7,4.8,7.7s0.8-10.5-1.5-14C103.5,98,98.5,95.5,95,94.6z"/>
							<path class="st12" d="M97.4,158.8c0,0-3.5-2.6-4.1-4.3c-0.4-1.1,0.8-2.9,0.4-4c-0.4-1.1-1.7-2.4-2.8-2.8
								C90,147.4,88,148,88,148l-2.4,5.6l1.7,2.2l3.5,3.2C90.8,159,97.4,158.8,97.4,158.8z"/>
							<path class="st12" d="M54.2,42.1c0,0-14.5,28.9-11.9,31.1c2.4,2.1,16.1,5.6,19.1,6.8c4.7,1.9,14.9,7.6,19.7,9.3
								c3.6,1.3,8.5,4.1,11.8,6.1c3.6,2.1,8.9,5,11.1,8.7c1.4,2.3,2,6.1,1.4,8.6c-1,3.8-5.7,6.9-8.3,9.9c-0.4,0.5-1.9,0.3-3.3,1.9
								c-1.4,1.7-2.6,5.1-3.5,5.1c-1.5,0.1-4.1-1.6-4.1-1.6s0.2,1.9,1.4,3.3c0.9,1.1,2.7,1.7,3.2,1.7c1.2,0,2.9-0.7,3.3-0.9
								c1.9-0.7,4.7-5,4.7-5s-5.1,5.6-5.2,8.6c0,1.3,1.1,2.4,0.9,3.7c-0.2,1.4-0.6,3-2.1,3.1c-2,0.2-4.8-0.6-4.8-0.6
								s1.2,2.2,3.2,3.3c1.2,0.7,2.7,0.8,4,0.3c2.9-1.1,6.3-3.8,8-6.4c1-1.5,1.7-5.8,1.7-5.8s-3.1,6.4-2.4,9.2
								c0.4,1.9,3.2,4.2,3.2,4.2s-3.5,1.2-5.1,2.2c-2.6,1.7-6.3,8.1-6.3,8.1s-3.9-1.5-5.3-2.6c-1-0.7-1.5-2.5-2.7-2.9
								c-0.8-0.2-2.7,0.7-2.7,0.7l-2,8.3c0,0,1,2.4,2,2.7c1.6,0.6,3.6-1.3,5.4-1.5c1.7-0.1,5.3,0.5,5.3,0.5l-6.4,3.8l-0.3,2.6l5,4.7
								c0,0,3.3-0.4,4.2-1.4c1.2-1.4,1.1-6,1.1-6s1.2,1.4,1.5,2.3c0.4,1.2-0.2,3.3-0.2,3.3l2.4,2.2l4.9,0.5c0,0,2.1-1.5,2.2-2.4
								c0.2-1.7-2.8-5-2.8-5l5.4-0.7l0.9-4.1c0,0,1.6,5.3,3.4,6.5c1.2,0.8,3.3,0.7,4.7,0.2c1.1-0.4,2.9-2.6,2.9-2.6s-2,0.8-2.9,0.5
								c-0.8-0.2-2-1-2-1.8c0-1.5,3.7-3.5,3.7-3.5s3.2,1.8,4.7,1.9c1.1,0.1,2.8,0,3.6-0.8c0.8-0.8,0.7-3.8,0.7-3.8s-0.9,1.5-1.8,1.6
								c-0.9,0.1-2.6-0.3-3-1.2c-0.7-1.6,0.8-5.7,0.8-5.7s3.4,1,4.9,0.3c0.6-0.3,1.7-1.5,1.8-2.5c0.2-1.6-0.1-2.4-0.1-2.4
								s-0.9,2-2,1.9c-1.1-0.1-2.7-0.8-3.4-1.6c-1.3-1.4-2.1-4.1-2.1-6.1c0-2.3,1.2-4.5,2-6.7c0.2-0.6,0.8-1.8,0.8-1.8
								s2.5,2,3.9,2.5c1,0.3,3.2-0.1,4-0.7c1.3-0.9,2.3-3.2,1.9-4.7c-0.3-1.2-2.2-2.2-2.2-2.2s0.1,1.9,0,2.8c-0.1,0.6-1.7,1-2.3,1.2
								c-0.5,0.1-1.1-0.5-1.4-0.9c-1.4-2-1.4-5.3-1.1-7.8c0.2-1.8,2.6-5.4,2.6-5.4s3.7,3,5.6,3.6c1.4,0.4,2-2,1.3-4.1
								c-0.9-2.6-3.3-5.1-3.3-5.1s-7.2-6.7-8.6-8.8c-4-5.7-5.3-10.9-9.8-16.3c-1.7-2-4.7-5.3-6.6-7.2c-3.3-3.2-8.8-7.7-11.8-11.1
								c-5.1-5.8-16.7-19-16.7-19l-5.5-8.6L54.2,42.1L54.2,42.1z"/>
							<path class="st13" d="M133.5,119.7c0,0-1.4-3.3-2.3-4.8c-0.8-1.3-2.9-2.2-3.7-3.4c-0.7-1.1-1.5-4-1.5-4"/>
							<path class="st13" d="M121.6,112.5c0,0,2,2.7,2.3,4.1c0.4,2.1-1.2,4.6-1.2,6.7c0,1.4,0.4,2.9,0.2,4c-0.2,0.9-1.1,3-1.1,3
								s2.2-1.1,3-2c0.3-0.3,2.3-2.5,2.3-2.5s-0.7,5-0.1,7c0.1,0.6,1.2,1.7,1.2,1.7"/>
							<path class="st13" d="M122.4,147.9c0,0,0.7,2.4,1.3,3.3c0.4,0.8,2,2.3,2,2.3"/>
							<path class="st13" d="M119.7,162.4c0,0,1.3-2.6,1.5-3.8c0.2-1.3,0.1-3.2-0.2-4.5c-0.1-0.5-0.9-1.5-0.9-1.5"/>
							<path class="st13" d="M115.7,153.9c0,0,1.3,2.6,1.2,3.8c-0.1,1.8-1.6,4-2,5.7c-0.2,0.9-0.6,2.1-0.6,3c0,0.7,0.7,2.2,0.7,2.2"
								/>
							<path class="st13" d="M111.2,162.8c0,0,0.8-4.5,1-5.5c0.1-0.8-0.4-2.5-0.4-2.5"/>
							<path class="st11" d="M93.4,66.2l-3.3,4.9"/>
							<path class="st11" d="M95.7,68.6l-2.9,3.5"/>
							<path class="st11" d="M97.4,71.1l-1.5,2.8"/>
							<path class="st11" d="M99.2,73.2l-1.6,2.6"/>
							<path class="st13" d="M112.8,147l-2.8,0.6l-4.4-0.7c0,0-0.2,1,0,1.7c0.1,0.4,0.7,1.2,1.1,1.4c0.7,0.3,1.8,0.7,2.7,0.5
								c0.4,0,1.2-0.6,1.2-0.6"/>
							<path class="st13" d="M109.8,131.5c0,0-1.7,2.6-1.8,3.9c-0.1,1.2,0.6,2.8,1.2,3.8c0.5,0.9,1,1.7,2,2.1
								c0.8,0.3,3.3,0.3,3.3,0.3s-2.1,1.3-3.2,1.4c-1.4,0.1-3.3-0.3-4.4-1.1c-0.8-0.5-1.5-1.5-1.9-2.3c-0.6-1.1-1.1-3.8-1.1-3.8"/>
							<path class="st13" d="M100.2,131.8c0,0-2,2.4-2.3,3.6c-0.2,1,0.3,2.4,0.2,3.4c-0.1,1-0.3,1.9-0.7,2.8c-0.4,1-2.2,3.7-2.2,3.7
								"/>
							<path class="st13" d="M128.6,116.8c0,0,0.3,3.3,0,4.7c-0.3,1.5-1.8,4.7-1.8,4.7"/>
							<path class="st13" d="M75.8,79.2c0,0,2.2,1.8,2.9,2.7c0.4,0.5,2.1,3.1,2.1,3.1"/>
							<path class="st13" d="M81.4,81.6c0,0,2.9,2.8,3.9,3.9c0.5,0.6,1.6,2.8,1.6,2.8"/>
							<path class="st13" d="M86.6,83.9c0,0,2.1,2.7,2.9,4c0.6,0.9,1.6,3.2,1.6,3.2l0,0"/>
							<path class="st13" d="M92.1,87.3c0,0,1.5,1.8,2,2.7c0.5,0.8,1.1,2,1.3,2.9c0.2,0.9,0,3.1,0,3.1"/>
							<path class="st15" d="M135.2,120.7l-2.9-3.8"/>
							<path class="st12" d="M138.3,115.2c0,0,1.8,1.6,4,1.6c1.9,0,4.2-1.8,5.2-3.4c0.6-0.9,1.4-7.2,1-8.7c-0.5-1.8-2.4-4.4-3.7-5.2
								c-1.4-0.8-2.9-0.9-4-0.6c-0.6,0.1-1.1,0.8-1.6,1.3c-0.3,0.3-1,0.7-1,1.1c0,0.2,0.3,0.5,0.5,0.7c0.7,0.7,2.7,1.8,2.7,1.8
								s-2.5,1.2-3.5,1c-1-0.2-2.3-1.1-2.7-1.9c-0.6-1.2-0.5-3.1,0-4.3c0.4-1.1,1.6-2.3,2.5-2.9c1.1-0.7,4-1.1,4-1.1
								s-4.5,0.6-6.4,0.1c-1.6-0.4-3.5-1.5-4.8-2.5c-0.6-0.6-1.4-1.5-1.6-2.3c-0.2-1,0-2.5,0.4-3.3c0.5-0.9,1.6-1.8,2.6-2.1
								c0.9-0.2,2.3,0.1,3.2,0.7c0.7,0.4,1.7,2,1.7,2s-1.6-0.3-2.2,0c-0.5,0.2-1.3,0.7-1.3,1.2c0,0.8,1.1,1.5,1.8,1.9
								c0.7,0.5,2.8,0.9,2.8,0.9l3.5-0.1l2.8,0.4c0,0-3.3-7-4.6-9.6c-0.8-1.5-1.9-5.4-2.4-7c-0.7-2.2-0.5-2.4-1.2-4.5
								c-0.8-2.5-2.3-5.8-4.2-7.6c-1.1-1-3.6-2.1-5-2.5c-1.2-0.3-2.5-0.2-3.7,0c-1,0.2-2.3,0.7-2.8,1.6c-0.6,0.9-0.9,2.6-0.5,3.6
								c0.1,0.3,0.6,0.6,0.9,0.8c0.6,0.4,1.6,0.8,2.4,0.8c1.1,0.1,2.6,0,3.5-0.4c0.2-0.1,0.7-0.6,0.7-0.6s-0.7,2.6-1.5,3.3
								c-0.8,0.8-2.4,1.5-3.5,1.6c-1.3,0.1-3.2-0.2-4.3-0.9c-1.4-0.9-3-2.8-3.4-4.4c-0.5-1.9-0.1-4.8,0.8-6.5
								c0.8-1.5,2.8-2.9,4.3-3.5c1-0.4,3.5-0.3,3.5-0.3l1.5,0.5c0,0-1.8-0.5-2.6-0.9c-0.8-0.3-2-0.7-2.7-1.3
								c-1.3-1.2-2.8-3.2-3.2-4.9c-0.2-1.1,0.1-2.7,0.4-3.7c0.5-1.3,1.4-3.1,2.5-4c1.1-0.9,3.1-1.5,4.5-1.6c0.9,0,2.1,0.2,2.8,0.7
								c1,0.6,2.1,2,2.2,3.2c0.1,0.5-0.6,1.7-0.6,1.7s-1.3-1.6-2-1.9c-0.8-0.3-2-0.3-2.8,0c-0.5,0.2-0.9,0.9-1.2,1.4
								c-0.4,0.9-0.7,2.4-0.3,3.3c0.5,1,2,1.7,3,2.2c1,0.5,3.5,1,3.5,1l3.6,2.7c0,0-0.6-4.8-0.5-6.9c0-1.8,0.3-4.1,0.7-5.9
								c0.5-2.3,1.5-5.3,2.5-7.5c1.5-3.2,4.9-6.6,6.3-9.8c0.5-1.1,1-2.6,1.1-3.8c0.1-1.5,0.1-3.6-0.4-5c-0.3-0.9-1.1-1.9-1.7-2.7
								c-0.6-0.8-1.4-2.2-2.4-2.6c-0.6-0.3-1.7-0.2-2.4,0.1c-0.7,0.2-1.4,0.9-1.7,1.4c-0.4,0.5-0.7,1.5-0.6,2
								c0.2,0.5,1.4,1.7,1.8,1.5c0.4-0.1,3.3-0.7,3.3-0.7s-0.8,2.4-1.7,3.1c-0.9,0.7-3.5,0.8-5.2,0.6c-1.7-0.2-3.9-2-5.3-3.1
								c-1.5-1.1-2.7-2.3-3.2-3.5c-0.5-1.2-0.4-2.9-0.1-4s1-2.1,1.7-2.7c0.6-0.5,2.3-0.8,2.3-0.8s-2.7-1.1-3.7-1.9
								c-1-0.9-2.1-2.3-2.5-3.5c-0.4-1.4-0.5-3.6,0.1-4.9c0.9-1.9,2.6-4.1,4.4-5.1c1.2-0.7,3.8-1.9,5.2-1.9c1,0,2.5,1.1,3.2,1.8
								c0.7,0.7,1.3,2.1,1.1,3.1c-0.1,0.7-1.6,1.9-1.6,1.9s0.4-1.9,0-2.6c-0.3-0.5-1.2-1.1-1.8-1.1c-0.8,0-2,0.9-2.3,1.7
								c-0.2,0.6,0,1.5,0.3,2.1c0.6,1.4,3.4,3.9,3.4,3.9l5.7,1.7l3.7,2.4l1.1,1.5l1.8-4.4c0,0,3.6-3.6,5.5-4.5
								c1.1-0.5,2.7-0.9,3.8-0.7c1.1,0.2,2.4,1.1,3.2,1.9c0.6,0.6,1.5,1.5,1.4,2.3C158-1.9,156-0.7,156-0.7s0.5-1.8,0-2.4
								c-0.4-0.6-1.6-0.9-2.3-0.8c-0.7,0-1.6,0.6-2.2,1.1c-0.7,0.6-1.5,1.6-1.9,2.4c-0.4,0.9-0.8,2.2-0.8,3.2c0,1.5,1.1,3.3,1.6,4.7
								c0.8,2,2.3,4.5,2.8,6.6c0.2,1,0.3,2.5,0.2,3.5c-0.1,0.7-0.6,2.1-0.6,2.1l0,0l-1.3,2.5c0,0,3.2-3,5-3.5c1.3-0.4,3.3-0.6,4.6,0
								c1.5,0.7,2.8,2.9,3.4,4.5c0.3,0.7,0.4,1.8,0.2,2.6c-0.2,0.8-0.9,1.8-1.5,2.4c-0.4,0.5-1.7,1.2-1.7,1.2s1.1-2.6,0.9-3.8
								c-0.1-1-0.9-2.4-1.7-2.8c-1.2-0.6-3.2-0.4-4.2,0.3c-0.9,0.6-1.4,2.1-1.7,3.2c-0.3,1.2,0.3,2.9,0,4.1
								c-0.4,1.3-1.6,2.9-2.5,3.9c-1.3,1.5-3.6,2.7-5,4.1c-1,1.1-4.5,6.2-4.9,7.2c-0.6,1.2-1.3,3-1.1,4.3c0,0.6,0.9,1.7,0.9,1.7
								s0.7-1.9,1.3-2.6c1.3-1.4,3.7-2.3,5.4-3.1c1.3-0.5,3.6-0.2,4.5-1.3c0.8-0.9,0.9-2.8,0.5-3.9c-0.3-0.8-1.7-1.6-2.2-1.7
								c-0.6-0.1-1.1,0.3-1.1,0.3s1.5-1.8,2.4-2c1.2-0.2,3,0.4,3.7,1.3c0.6,0.7,1.4,1.9,1.5,2.8c0.1,1-0.1,2.6-0.5,3.5
								c-0.4,1-1.9,1.6-2.6,2.4c-0.5,0.5-1.6,1.3-1.4,2c0.2,0.9,2,0.8,2.8,1.3c1.4,0.8,3.1,2,4.1,3.2c0.6,0.7,1.3,1.8,1.5,2.7
								c0.4,1.7,0.3,4-0.2,5.6c-0.3,1-1,2.3-1.8,2.9c-0.4,0.3-1.1,0.4-1.7,0.5c-1,0-2.4,0.1-3.3-0.5c-0.7-0.4-1.5-2.3-1.5-2.3
								l-0.3-0.8c0,0,2.4,1.5,3.5,1.3c0.6-0.1,1.5-0.7,1.7-1.3c0.2-0.8-0.1-2.1-0.7-2.7c-0.7-0.7-2.3-0.7-3.4-0.9
								c-0.8-0.1-1.9-0.5-2.9-0.2c-1.1,0.4-2.6,0.8-3.5,1.4c-0.7,0.5-1.5,1.3-2.1,1.9c-0.4,0.4-1.2,1-1.4,1.6
								c-0.7,1.8-0.3,5.8-0.1,7.9c0.1,1.3,0.5,3.1,1,4.3c1.2,3.4,2.3,5.4,3.6,8.8c1.1,2.8,3.9,8.8,4.8,11.7c0.4,1.3,1.1,2.9,1.3,4.2
								c0.2,1.6,0.1,3.6,0.2,5.2c0.1,2.5,0.6,4.9,0,7.2c-0.4,1.5-1.5,4.2-2.4,5.4c-1,1.5-2.2,3.5-3.7,4.5c-1.3,0.9-3.4,1.6-5,1.7
								c-1.2,0.1-3.2,0-4.3-0.5c-1.7-0.7-5.4-3.3-5.4-3.3"/>
							<path class="st13" d="M124.5-12c0,0-1.2,3.9-0.9,5.2c0.2,1.6,0.8,3.8,1.8,5.2c0.7,1.1,2.2,2.1,3.4,2.8c1.8,1,6.7,2.2,6.7,2.2
								"/>
							<path class="st8" d="M131.8,6.8c0,0-2.8,1.5-3.7,2.4c-0.6,0.7-1.4,1.8-1.6,2.8c-0.2,1,0.4,3.5,0.4,3.5"/>
							<path class="st16" d="M152,21.5c0,0-2.4,4.8-3.8,6.6c-0.5,0.6-1.3,1.2-1.9,1.7c-0.6,0.4-2.1,1.4-2.1,1.4"/>
							<path class="st16" d="M149.2,36.2c0,0-2.1-0.6-3.1-0.5c-0.8,0.1-1.7,0.5-2.3,1c-0.6,0.4-1.5,1.8-1.5,1.8"/>
							<path class="st13" d="M162.2,60.3c0,0-2.7-3.1-4.1-4.1c-1.5-1.1-3.8-2.1-5.6-2.2c-2-0.1-4.8,0.7-6.6,1.7
								c-1.2,0.6-2.4,2.1-3.3,3.2c-1,1.1-2.8,3.9-2.8,3.9"/>
							<path class="st16" d="M144.1,91.1c0,0,1.9,2.4,2.5,3.4c0.4,0.8,0.9,2.8,0.9,2.8"/>
							<path class="st12" d="M75.6,20.4c0,0-7.1,7.3-10.7,9.7c-3.4,2.2-9.1,3.2-12.6,5.4c-3.5,2.2-7.8,6-10.2,9.3
								c-1.7,2.3-3.3,5.9-4.3,8.5c-1,2.4,1.4,5.8,0.4,6.1c-1.3,0.4-3.7,2.1-5.3,4.7c-1.1,1.8-1.6,4.7-1.8,5.5
								c-0.3,1.2-0.1,3.1,0.7,4.1c0.8,1.1,4.2,1.7,4.2,1.7s-1.5-2.6-1.2-3.7c0.3-0.9,1.5-1.8,2.4-2c1.4-0.3,3.1,0.2,3.1,0.2
								s-1.4,4.1-0.9,5.8c0.3,1.3,2.3,2.3,2.7,3.6c0.4,1.2,0.5,3,0.2,4.2c-0.6,2.1-4.1,6-4.1,6s5.4-1.7,7.1-3.2
								c1.6-1.4,3.1-3.8,3.4-5.8c0.4-1.8-1.5-4.5-0.9-6.3c0.8-2.3,5.7-5.8,5.7-5.8s0.2,4.2,0.6,5.9c0.3,1.2,1.8,2.6,1.5,3.8
								c-0.3,1.6-3.3,2-4.1,3.5c-0.7,1.5-0.6,3.8-0.4,5.4c0.2,1.1,0.8,2.7,1.6,3.5c1.2,1.3,3.4,2.5,5.1,3c0.6,0.1,2,0,2,0
								s-3.4-2.2-4.1-3.7c-0.3-0.9-0.2-2.2,0.1-3.1c0.5-1,1.9-1.8,2.8-2.6c1.3-1,3.3-2,4.3-3.2c1-1.3,1.9-3.3,2.4-5
								c0.4-1.7,0.4-5.8,0.4-5.8s-0.1,3.1,0.6,4.6c0.5,0.9,2.5,2.4,3.1,3.3c0.4,0.7,1.1,1.7,1,2.6c-0.1,1-1.4,2-1.9,2.9
								c-0.5,0.8-1.6,2.7-1.6,2.7s4.6-2.1,6.2-3.5c1.4-1.3,3.3-3.4,3.5-5.3c0.2-1-0.5-2.3-0.8-3.2c-0.2-0.7-0.6-1.6-0.8-2.2
								c-0.2-0.6-0.7-1.6-0.5-2.2c0.3-1.1,2.9-2.6,2.9-2.6s-0.6,2.1-0.5,3.1c0.2,1.6,2,4.8,2,4.8s0.2-2.9,1.1-3.7
								c1.4-1.5,4.7-1.1,6.5-2c2-1.1,5.5-4.6,7-6.5c0.3-0.4,3.1,3.3,4.9,1.9c2.8-2.2,5-4.8,7-8.9c1.6-3.3-0.3-7.9-0.2-12.1
								c0.1-4.6,1.5-10.2,1.4-10.7c-0.7-2.3-3.6-5.2-3.6-5.2l-0.8-11l-5.5-6.6l-24,6.5L75.6,20.4L75.6,20.4z"/>
							<path class="st12" d="M95.7-5.9c0,0,1.3-1.7,1.7-3.1c0.2-0.9,0.1-3.4,0-4.7c-0.1-1.2-0.5-1.7-0.5-1.7s-0.2,1.5-0.6,2.2
								c-0.6,1.3-2.9,3.6-2.9,3.6s0.4-1.7,0.4-2.4c-0.1-2.2-2-7.2-2-7.2s-0.9,4.9-2.1,6.5c-1,1.4-2.4,1-4.1,1.5
								C81.3-9.7,73.6-10.8,68.9-9c-2,0.8-6,3.6-6,3.6s-5,1.7-7.8,1.2c-1-0.2-2.2-1.1-3.3-0.9C50-4.8,48.5-4.9,47-4.4
								c-1.9,0.6-2,4.6-1.4,6.5c0.2,0.6,1.1,1.2,1.2,1.9c0.3,1.1-0.6,2.6-0.3,3.7c0.4,1.3,1.6,2.8,2.8,3.4c1.7,0.8,4.2,0.1,5.9-0.4
								c1.9-0.6,3.9-0.4,5-2.1c0.4-0.7,1.7-3.2,1.7-3.2s3.1,2.2,3.7,4c0.6,1.6,0.5,4.2-0.2,5.7c-1.1,2.3-4,4.6-6.4,5.5
								c-2.1,0.8-5.5-0.8-7.6,0.1c-1.7,0.7-3.3,1.4-3.9,3.1c-0.3,1.1-0.6,3.5,0.1,4.3c0.9,1,2.8,0.1,3.4,1.3
								c0.4,0.6,0.3,3.3,0.3,3.3s3-2,3.7-3.3c0.5-0.8,0.5-3.1,0.5-3.1s7.4,0.5,10.5,0.5c2.2,0,5.9,0.5,7.9-0.4
								c1.6-0.8,2.8-2.7,3.2-4.3c0.1-0.6-0.6-2-0.6-2s1.2-0.7,1.7-0.1c1.5,1.3,2,3,2,5c0,3.5-0.4,8.5-1.9,11.6
								c-1,1.8-2.5,4.2-4.3,5.9c-0.7,0.7-1.4,1.3-2.1,1.7c-1.7,1-4.7,0.9-6.4,2c-1.1,0.7-2.5,2-3.1,3.3c-0.5,1-0.9,2.5-0.8,3.5
								c0.1,1.4,1.6,4.3,1.6,4.3l1.2-3.5l6.1-2.9c0,0,8.1-1.8,11-3.6c3.2-2,3.3-3.2,3.3-3.2s-0.7,4.4-4.6,7.9
								c-1.2,1-4.6,2.6-4.6,2.6s6.5-0.4,9-1.7c2.9-1.5,6.2-4.7,8.1-7.3c1.7-2.4,4.5-10.5,4.5-10.5s-2.1-7.7-3.6-11.4
								c-0.8-2-3.9-6.1-3.9-6.1s3,4.2,3.9,6.2c2,4.4,4.8,15.5,4.8,15.5s2.3-7.1,2.7-10.3c0.2-2.3,0.4-5.5-0.2-7.8
								c-0.5-1.9-3.2-5.8-3.2-5.8s2.5,4.1,3.1,6c0.7,2.2,0,5.7,1.2,7.6c1.5,2.3,4.9,4.9,7.5,5c1.1,0,2.4-1.1,3.2-1.9
								c1-1.2,2.1-3.2,1.9-4.7c-0.1-1-1.9-2.7-1.9-2.7s-0.9,2.4-1.6,3.1c-0.6,0.6-1.7,0.3-2.3-0.1c-0.6-0.4-0.5-2.3-0.6-3
								c-0.6-3.6,1.7-7.9,0.4-10.9c-0.4-1-1.8-3.7-3.1-4.5c-0.8-0.5-3.9-1.9-3.9-1.9s2.1-1.3,2.7-2.2c1.3-1.8,2.1-4.8,2.5-7
								c0.3-1.6,0-5.3,0-5.3s-5,0.1-7,0.5C98.4-6.7,95.7-5.9,95.7-5.9z"/>
							<path class="st9" d="M81.7,1c0,2-2.7,3.6-6.1,3.6S69.6,3,69.6,1s2.7-3.6,6.1-3.6S81.7-1,81.7,1z"/>
							<path class="st9" d="M77.1,1.3c0,2.1-1.7,3.9-3.9,3.9c-2.1,0-3.9-1.7-3.9-3.9s1.7-3.9,3.9-3.9C75.4-2.6,77.1-0.9,77.1,1.3z"
								/>
							<path d="M73-3.3c-0.3,0-0.5,0-0.8,0.1c-0.5,0.1-1,0.1-1,0.1l0.4,1.7c0,0,0.4-0.1,0.8-0.1c0.4,0,1,0.1,0.9,0
								c0,0,0.3,0.4,0.3,0.5c0.1,0.3,0,1.3-0.1,1.6c0,0.1-0.4,0.4-0.4,0.5c0.1,0-0.3,0-0.6-0.1c-0.3-0.1-0.6-0.1-0.6-0.1
								S71,0.7,70.9,1c-0.1,0.4,0.5,1.3,0.5,1.3s0.3,0.1,0.7,0.2c0.4,0.1,0.8,0.2,1.5,0c0.7-0.2,1.2-0.7,1.5-1.3
								c0.4-0.8,0.5-1.8,0.2-2.7C75-2.2,74.7-2.8,74-3.1C73.6-3.2,73.3-3.3,73-3.3L73-3.3z"/>
							<path class="st8" d="M72.3-5.9c0,0-1.4,0.2-1.9,0.4c-1.1,0.4-2.2,1.4-2.3,2.6c-0.1,0.6,0.1,1.1,0.6,1.5
								c0.5,0.5,1.3,0.4,1.9,0.4c1,0,2.2-0.7,3.1-0.6c1.4,0.2,3.1,1,4.1,1.9c0.5,0.4,0.6,1.5,1.1,1.8c0.5,0.3,1.4,0.5,1.9,0.3
								c0.5-0.3,0.8-1.1,1-1.7c0-0.3,0-0.7,0-0.9c-0.1-0.4-0.5-0.9-0.8-1.2c-0.4-0.4-1.5-1-1.5-1"/>
							<path class="st13" d="M47.6,2.6c0,0,2.4-3.1,3.5-3.6c1.1-0.4,1.5-0.4,1.7,0C53-0.6,53,0,52.1,0.8C51.3,1.6,47.6,2.6,47.6,2.6
								L47.6,2.6z"/>
							<path class="st17" d="M95.5-0.3c0,0,1.3-2.1,2.2-2.6c1.4-0.8,5.3-1,5.3-1s0.7,3.4-0.2,4.4c-0.4,0.5-1.7-0.3-2.1,0.2
								c-0.6,0.6,0.3,2.2-0.3,2.8c-0.4,0.4-1.9,0.1-1.9,0.1s0.1-2.4-0.6-3.1C97.4-0.1,95.5-0.3,95.5-0.3z"/>
							<path class="st13" d="M91.9,0.9c0,0-2.7,5.4-4.5,7.1c-1,0.9-2.5,2-3.8,2.4c-2.4,0.8-8.8,1.2-8.8,1.2l-0.4,0.5
								c0,0,7.2-1.8,9.2,0c0.8,0.7,0.7,2.5,0.3,3.4c-0.3,0.8-1.4,1.9-2.1,2.4c-1.2,0.7-4.3,1.6-4.3,1.6"/>
							<path class="st13" d="M89.7,28.2c0,0,0.4,4.1,0,5.8c-0.6,2.7-1.9,5-3.3,7.4c-0.5,1-2,3.1-2,3.1"/>
							<path class="st13" d="M46.6,62.9c0,0-3.1,2-4.2,3.3c-0.8,0.9-2.1,3.6-2.1,3.6"/>
							<path class="st13" d="M78.3,57.8c0,0-6,1.9-8.4,3.5c-1.2,0.8-2.2,2.4-2.8,3.6c-0.9,1.9-1.5,5.5-1.5,5.5"/>
							<path class="st13" d="M77.6,67.1c0,0,3.4-3.3,4.8-4.4c1.9-1.6,5.5-2.4,6.9-4.5c0.9-1.3,1-5.1,1-5.1"/>
							<path class="st13" d="M46,45.4c0,0-0.3,4.7-1.1,6.5c-0.4,0.9-1.3,2.5-2.3,3.5c-1.9,2.2-4.3,3.9-4.3,3.9"/>
							<path class="st13" d="M53.3,69.5c0,0,1.1-4.3,2-6.1C55.9,62.2,58,60,58,60"/>
						</g>
						<g>
							<path class="st18" d="M24.6,108.3c-0.7-0.6-1-2-1.7-2.7c-1-1-3.9-2.7-3.9-2.7s2.5-0.3,3.5-0.2c1.3,0.2,3.1,0.7,4,1.6
								c0.7,0.7,1.4,2,1.3,3.1c0,0.6-0.5,1.6-1.2,1.8C26.1,109.4,25.1,108.7,24.6,108.3z"/>
							<path class="st18" d="M17.2,110.2c0.5,0.5,1,1.4,1.2,2.1c0.2,0.7,0.4,1.8,0,2.5c-0.3,0.4-1,0.6-1.5,0.7
								c-0.3,0.1-0.8,0-1.1-0.2c-0.7-0.3-1.2-1.2-1.9-1.4c-0.6-0.2-1.5,0-2.1,0.2c-0.8,0.3-1.3,0.4-1.9,1.1
								c-0.5,0.6-1.4,2.6-1.4,2.6s-0.9-2.4-0.8-3.4c0.1-1.5,0.7-2.9,1.8-3.8c0.7-0.6,2-1,2.9-1.2c1.1-0.2,2.7,0,3.8,0.3
								C16.6,109.9,17,110,17.2,110.2z"/>
							<path class="st18" d="M22,125.3c0.4,0,1,0.2,1.4,0.5c0.7,0.7,1.5,2.1,1.3,3.2c-0.1,0.8-1.2,1.4-1.9,1.8
								c-1,0.6-2.5,1.2-3.7,1.3c-1.1,0.1-3.6-0.4-3.6-0.4s2.2-1.3,2.8-2.1c0.7-0.8,0.8-2.2,1.5-3C20.4,126,21.3,125.4,22,125.3z"/>
							<path class="st18" d="M35.7,131.7c1-0.1,2.1,1,2.7,1.7c0.5,0.6,0.6,1.2,0.5,2c0,1.1-0.8,2.4-1.7,3.1
								c-0.5,0.4-1.5,0.7-2.1,0.7c-0.8,0-1.5,0.1-2.2-0.1c-0.8-0.4-2.3-1.9-2.3-1.9s1.9,0,2.7-0.4c0.7-0.4,1.5-1.4,1.7-2.3
								c0.1-0.4-0.3-1.1-0.2-1.6C35,132.4,35.3,131.8,35.7,131.7z"/>
							<path class="st8" d="M19.4-8.4c0.1,0.8,0.6,1.7,1.3,2.2c0.5,0.3,1.3,0.6,1.9,0.4c0.7-0.2,1.4-0.6,1.6-1.3
								c0.6-2,0.7-4.5-0.1-6.4c-0.7-1.4-2.2-3.2-3.7-3.7c-0.7-0.3-1.3-0.5-2-0.3c-0.7,0.2-2.3,1.1-2.3,1.1s1.6,0.4,2.2,0.9
								c0.6,0.5,1.3,1.4,1.6,2.1c0.4,0.9,0,1.7,0,2.7C19.8-10,19.3-9.1,19.4-8.4L19.4-8.4z"/>
							<path class="st8" d="M0.9-14.1c0,0,0.2-2.6,1.2-3.6c1-1,2.9-1.8,4.4-1.9c1-0.1,2.3,0.3,3.1,0.9c1.5,1.1,2.8,2.7,3.3,4.6
								c0.2,0.8,0.4,1.7,0.1,2.4c-0.3,0.8-1.2,1.3-2.1,1.4c-0.6,0.1-1.6-0.8-2.1-1.2c-1.2-1.1-1.2-3.5-2.7-4.3
								C5.6-16,4.9-16.1,4.4-16c-0.4,0-1,0.3-1.5,0.4C2.2-15.4,0.9-14.1,0.9-14.1z"/>
							<path class="st8" d="M2.9,4.1c0.4-0.1,1.2-0.2,1.5-0.6c0.4-0.6,0.3-1.7-0.1-2.3C3.9,0.4,3.4-0.3,2.5-0.6
								C1.9-0.7-0.3,0-0.8,0.2c-1.2,0.6-2,1.3-2.5,2.5c-0.5,1.1-0.5,3-0.1,4.1C-3,7.7-1.9,8.5-1,9c0.5,0.3,1.9,0.6,1.9,0.6
								s-1.1-2.3-0.9-3.4C0,5.6,0.5,4.7,1,4.4C1.5,4.1,2.3,4.3,2.9,4.1z"/>
							<path class="st8" d="M5.2,16c0.6-0.5,1.9,0,2.5,0.5c0.6,0.5,1.1,1.7,1,2.5c-0.1,0.9-1,1.9-1.7,2.4c-1,0.7-2.7,1.5-4,1.4
								c-1.3-0.1-3.1-1.1-4-2.1c-0.9-1.1-1.6-3.1-1.6-4.5c0-0.7,0.6-2,0.6-2s0.8,2,1.5,2.6c1,0.8,2.7,1.3,3.9,1.3
								C3.9,18.1,4.9,16.3,5.2,16L5.2,16z"/>
							<path class="st8" d="M-2.6,61.2c0.1-1.4-0.5-2.9-1.5-3.8c-0.8-0.8-2.6-1.1-3.8-1.3c-1.2-0.1-3-0.2-4.1,0.4
								c-0.6,0.3-0.9,0.7-1.1,1.3c-0.2,0.6-0.3,1.9-0.3,1.9s1-0.8,1.6-0.8c0.8,0,1.8,0.5,2.5,0.9c0.7,0.4,1.5,1.3,2.1,1.7
								c0.5,0.3,1.1,0.9,1.7,1c0.6,0.1,1.5,0.1,2.1-0.1C-2.9,62.1-2.6,61.6-2.6,61.2z"/>
							<path class="st8" d="M-9.2,66.3c-0.2,0.7-1,1.6-1.7,1.8c-0.6,0.2-1.6,0-2.2-0.2c-0.8-0.3-1.3-1.7-2.1-1.9
								c-1-0.4-2.4-0.3-3.5,0c-0.6,0.1-1.5,0.6-1.9,1c-0.6,0.6-1.4,2.5-1.4,2.5s-0.5-3.6,0.2-5c0.5-1.1,1.9-2.1,3-2.7
								c1-0.5,2.5-0.7,3.5-0.7c1,0,2.4,0.3,3.3,0.8c0.9,0.5,1.8,1.4,2.3,2.2C-9.3,64.7-9,65.6-9.2,66.3z"/>
							<path class="st8" d="M-4.2,81c0.7-0.7,0.6-1.8,0.1-2.7c-0.5-1-1.8-2.2-2.9-2.3c-0.8,0-1.5,1-2.2,1.5c-0.8,0.5-2,1.2-2.7,1.9
								c-0.7,0.7-1.6,1.7-2,2.6c-0.3,0.6-0.6,1.4-0.5,2c0.2,0.8,1.7,2.3,1.7,2.3s-0.3-2,0.1-2.7c0.4-0.6,1.3-1.2,2-1.4
								c1.1-0.4,2.7-0.5,4-0.5C-5.8,81.6-4.8,81.7-4.2,81z"/>
							<path class="st8" d="M9.4,86.5c0.3,1.1,0.6,2.2,0.3,3.3c-0.4,1.2-1.8,2.5-3,2.9c-0.7,0.3-1.6,0.5-2.3,0.4
								c-0.8-0.2-2.6-1-2.6-1s1.4-0.7,1.9-1.1c0.6-0.5,1.5-1.2,1.8-1.9c0.3-0.9-0.6-2.4-0.2-3.3c0.3-0.6,1-1.2,1.7-1.3
								c0.6,0,1.5,0.5,2,0.9C9.1,85.6,9.3,86.1,9.4,86.5z"/>
							<path class="st8" d="M89.7,149.9c0-1-1.2-2-2-2.6c-1-0.7-1.5-0.9-2.6-1.1c-1-0.1-2.4-0.3-3.3,0c-1,0.4-2.4,2.6-2.4,2.6
								s3.2-0.5,4.5-0.2c1.4,0.3,1.8,1.7,3.2,2.2c0.5,0.2,1.3,0.6,1.7,0.4C89.2,151.1,89.7,150.4,89.7,149.9z"/>
							<path class="st8" d="M83.8,154.3c0.7,0.7,1.2,0.9,1.2,1.8c0,0.9-0.5,2.2-1.3,2.6c-0.4,0.2-1.2-0.1-1.7-0.2
								c-0.9-0.2-1.9-0.9-2.8-1c-0.7,0-1.7,0.2-2.4,0.6c-0.5,0.3-1,0.9-1.4,1.5c-0.3,0.5-0.1,1.2-0.3,1.7c0,0.2-1.1-1-1.4-1.7
								c-0.2-0.8-0.3-1.9-0.1-2.7c0.3-1.1,1.2-1.7,2.1-2.5c0.8-0.7,2-0.7,3.1-0.9c1.1-0.2,2.6-0.1,3.7,0.2
								C82.9,153.7,83.5,154,83.8,154.3z"/>
							<path class="st8" d="M88.5,168.4c0,0,1.8,0.5,2.4,0.9c0.3,0.3,0.5,0.5,0.6,0.9c0.2,0.9,0,2.3-0.6,3c-0.8,0.9-2.7,1.1-3.8,1.4
								c-0.8,0.2-2.5,0.8-2.5,0.8s1.7-4.9,2.3-5.6C87.6,168.9,88.4,168.5,88.5,168.4z"/>
							<path class="st8" d="M105.3,172.2c0.6,0.3,1.3,0.9,1.5,1.6c0.3,0.7,0.4,1.9,0.1,2.6c-0.4,1-1.8,1.9-2.8,2.4
								c-1.3,0.7-4.8,1.1-4.8,1.1s1.6-1.7,2.2-2.5c0.3-0.5,0.9-1.2,0.9-1.8c0.1-0.7-0.9-1.7-0.7-2.4c0.1-0.5,0.6-1,1.1-1.2
								C103.5,171.8,104.6,171.9,105.3,172.2L105.3,172.2z"/>
						</g>
					</g>
				</g>
			</g>
			<g>
				<g transform=" translate(704.91712707182,30) scale(1.4917127071823, 1.4917127071823) ">
					<g>
						<g>
							<path class="st19" d="M-198.6-9.5C-198.6-9.5-198.6-9.5-198.6-9.5C-198.6-9.5-198.6-9.5-198.6-9.5
								C-198.6-9.4-198.6-9.4-198.6-9.5C-198.6-9.4-198.6-9.4-198.6-9.5c-0.1,0.7-0.6,1.3-1.5,1.6c-0.9,0.4-2.3,0.5-4.2,0.1
								c-1.3-0.3-2.9-0.2-4.2,0.1c-0.6,0.2-1.2,0.5-1.5,0.8c-0.4,0.3-0.6,0.8-0.5,1.3c-1.5,0-2.7,0.8-3.2,1.8
								c-0.6,1-0.5,2.4,0.5,3.6c0,0,0,0,0,0c0,0,0,0,0,0c0,0,0,0,0,0c0,0,0,0,0,0c0,0,0,0,0,0c0,0,0,0,0,0c0,0,0,0,0,0c0,0,0,0,0,0
								c0,0,0,0,0,0c0.1-0.8,0.7-1.5,1.5-1.9c0.8-0.4,1.7-0.4,2.4,0.2c0,0,0,0,0,0c0,0,0,0,0,0c0,0,0,0,0,0c0,0,0,0,0,0c0,0,0,0,0,0
								c0,0,0,0,0,0c1.7-0.3,3.1,0,3.9,0.7c0.4,0.3,0.7,0.7,0.9,1.2c-0.9-0.5-1.9-1-3.2-1c-1.1,0-2.3,0.6-3.4,1.2
								c-1.2,0.6-2.3,1.2-3.1,1.2c-1.3,0-2-0.5-2.7-1.1c0,0,0,0,0,0c0,0,0,0,0,0c0,0,0,0,0,0c0,0,0,0,0,0c0,0,0,0,0,0c0,0,0,0,0,0
								c0,0,0,0,0,0c0,0,0,0,0,0c0,0,0,0,0,0c0,0,0,0,0,0c0,0,0,0,0,0c0,0,0,0,0,0c0.1,0.5,0.4,1.1,1,1.6c0.5,0.5,1.3,0.9,2.1,0.9
								c1.1,0,2.2-0.5,3.2-1c1.1-0.5,2.1-1,3.1-1c0.8,0,1.4,0.3,2,0.7c-0.9,0-1.9,0.2-2.7,0.5c-1.3,0.5-2.3,1.3-2.5,2.5c0,0,0,0,0,0
								c0,0,0,0,0,0c0,0,0,0,0,0c0,0,0,0,0,0c0,0,0,0,0,0c0,0,0,0,0,0c0,0,0,0,0,0c0,0,0,0,0,0c0,0,0,0,0,0C-209,4-207,4-205.3,4.1
								c0.5,0,0.9,0,1.3-0.1c0.2,3.1-2,5.8-4.3,7.1c-1.2,0.7-2.4,1-3.3,0.9c-0.9-0.1-1.6-0.7-1.8-1.8c0,0,0,0,0,0c0,0,0,0,0,0
								c0,0,0,0,0,0c0,0,0,0,0,0c0,0,0,0,0,0c0,0,0,0,0,0c0,0,0,0,0,0c0,0,0,0,0,0c-0.4,0.3-0.6,0.9-0.6,1.4s0.2,1.1,0.6,1.4
								c0.5,0.5,1.3,0.8,2.2,0.9c0.6,0,1.3-0.1,1.9-0.3c-0.5,0.5-1,1-1.4,1.5c-0.2-0.2-0.5-0.4-1-0.6c-0.5-0.2-1-0.4-1.6-0.4
								c-1.3,0-2.4,0.5-3.5,1c-1.1,0.5-2.1,1-3.3,1c-3.1,0-5.3-2.5-5.3-5.4c0-1.7,1-2.8,2-3.7c0.5-0.5,1-0.9,1.4-1.4
								c0.4-0.4,0.6-0.9,0.6-1.5c0-0.8-0.4-1.5-1.1-2.1c-0.7-0.6-1.5-1-2.5-1.4c-1.3-0.5-2.8-1.4-3.5-2.4c-0.4-0.5-0.6-1-0.5-1.6
								c0.1-0.6,0.4-1.2,1.1-1.8c0,0,0,0,0,0c0,0,0,0,0,0c0,0,0,0,0,0c0,0,0,0,0,0c0,0,0,0,0,0c0,0,0,0,0,0c0,0,0,0,0,0c0,0,0,0,0,0
								c0,0,0,0,0,0c0,0,0,0,0,0c-0.9,0.1-1.6,0.6-1.9,1.2c-0.4,0.6-0.4,1.4-0.3,2.1c0.2,1.1,0.9,2.2,1.9,3
								c-2.9-1.1-4.8-2.8-6.5-4.6c0,0,0,0,0,0c0,0,0,0,0,0c-0.4-0.1-0.7,0-1,0.1c-0.3,0.2-0.4,0.5-0.5,0.8c-0.2,0.7,0,1.7,0.5,2.8
								c0.7,1.6,2.3,3.5,4.8,4.7c-3.1-0.7-5.8-2.1-7.1-3.9c0,0,0,0,0,0c0,0,0,0,0,0c0,0,0,0,0,0c0,0,0,0,0,0c0,0,0,0,0,0
								c0,0,0,0,0,0c0,0,0,0,0,0c0,0,0,0,0,0c0,0,0,0,0,0c0,0,0,0,0,0c0,0,0,0,0,0c0,0.6,0.5,1.7,1.7,2.8c1,0.9,2.4,1.8,4.5,2.5
								c-1.2-0.2-2.3-0.4-3.3-0.7c-1.8-0.5-3.4-1.3-4.1-2.4c0,0,0,0,0,0c0,0,0,0,0,0c0,0,0,0,0,0c-0.3-0.1-0.6-0.1-0.9,0
								c-0.2,0.1-0.4,0.3-0.6,0.6c-0.3,0.5-0.3,1.2-0.1,1.8c0.4,1.3,1.7,2.8,3.5,4c1,0.6,2.1,1.1,3.2,1.4c-0.9,0-1.9,0-2.9-0.1
								c-2-0.2-3.9-0.6-4.8-1.5c0,0,0,0,0,0c0,0,0,0,0,0c0,0,0,0,0,0c0,0,0,0,0,0c0,0,0,0,0,0c0,0,0,0,0,0c0,0,0,0,0,0c0,0,0,0,0,0
								c0,0,0,0,0,0c0,0,0,0,0,0c0,0,0,0,0,0c0.2,1.2,1.3,2.2,3.2,2.7c1.4,0.4,3.2,0.6,5.4,0.4c-1.2,0.6-2.5,0.9-3.6,1.1
								c-1,0.1-1.8,0.1-2.5,0c-0.7-0.1-1.2-0.4-1.4-0.8c0,0,0,0,0,0c0,0,0,0,0,0c0,0,0,0,0,0c0,0,0,0,0,0c0,0,0,0,0,0c0,0,0,0,0,0
								c0,0,0,0,0,0c-0.6,1.3-0.5,2.4,0,3.2c0.6,0.8,1.6,1.3,2.8,1.6c1.5,0.3,3.2,0.3,5,0c-2.9,1.8-6.4,2.5-7.8,2.7c0,0,0,0,0,0
								c0,0,0,0,0,0c0,0,0,0,0,0c0,0,0,0,0,0c0,0,0,0,0,0c0,0,0,0,0,0c0,0,0,0,0,0c0,0,0,0,0,0c0,0,0,0,0,0c0.5,0.5,1.4,0.7,2.4,0.6
								c1-0.1,2.2-0.3,3.4-0.8c1.1-0.4,2.2-0.9,3.2-1.4c-1.3,1.2-2.7,2-4.1,2.6c-2.1,0.9-4.1,1.2-5,1c0,0,0,0,0,0c0,0,0,0,0,0
								c0,0,0,0,0,0c0,0,0,0,0,0c0,0,0,0,0,0c-0.1,0.4-0.1,0.7,0.1,1.1c0.2,0.3,0.5,0.6,0.9,0.9c0.8,0.5,1.9,0.8,3.2,0.8
								c1.5,0,3.3-0.4,4.9-1.1c-2.3,2.2-5.3,3.8-7.3,4.4c0,0,0,0,0,0c0,0,0,0,0,0c0,0,0,0,0,0c0,0,0,0,0,0c0,0,0,0,0,0c0,0,0,0,0,0
								c0,0,0,0,0,0c0,0,0,0,0,0c0,0,0,0,0,0c0,0,0,0,0,0c0,0,0,0,0,0c0,0,0,0,0,0c3.1-0.1,6-1.7,8.3-3.5c-0.6,0.7-1.2,1.3-1.8,2
								c-2.3,2.3-5,4.3-7.3,4.6c0,0,0,0,0,0c0,0,0,0,0,0c-0.3,0.3-0.4,0.6-0.4,0.9c0,0.3,0.1,0.6,0.4,0.8c0.5,0.5,1.4,0.8,2.6,0.8
								c2.9,0,6-2,8.6-4.5c-2.4,3.1-5.4,6.6-8.5,8.6c0,0,0,0,0,0c0,0,0,0,0,0c0,0,0,0,0,0c0,0,0,0,0,0c0,0,0,0,0,0c0,0,0,0,0,0
								c0,0,0,0,0,0c0,0,0,0,0,0c0,0,0,0,0,0c0,0,0,0,0,0c0.8,0,1.8-0.5,2.9-1.3c1.2-0.8,2.5-2,3.8-3.4c0.9-0.9,1.7-1.8,2.5-2.7
								c-2.2,3.8-4.4,6.8-6.9,8.8c-1.1,0.9-2,1.2-2.6,1.5c-0.3,0.1-0.6,0.2-0.7,0.4s-0.3,0.3-0.3,0.6c0,0.4,0.3,0.9,0.9,1.2
								c0.5,0.3,1.2,0.5,1.9,0.5c2.4,0,5.3-1.7,7.8-4c2-1.8,4.3-4.8,6.2-7.8c1.1-1.8,2.1-3.6,2.8-5.2c-0.5,2.6-1.4,5.2-2.2,6.8
								c-0.5,1-1.5,3-2,3.9c-0.2,0.3-0.5,0.7-0.9,1.1c-0.2,0.2-0.3,0.3-0.4,0.5c-0.1,0.1-0.2,0.3-0.2,0.4c0,0.3,0.1,0.7,0.4,0.9
								c0.3,0.2,0.7,0.4,1.3,0.4c0.4,0,0.8-0.2,1.4-0.5c0.6-0.3,1.3-0.9,2.1-1.5c2.5-2,5.3-6.3,6.5-14c0,1.4-0.1,2.9-0.2,4.4
								c-0.1,1.9-0.4,3.6-0.8,4.5c0,0,0,0,0,0c0,0,0,0,0,0c0,0,0,0,0,0c0,0,0,0,0,0c0,0,0,0,0,0c0,0,0,0,0,0c0,0,0,0,0,0
								c0,0,0,0,0,0c0,0,0,0,0,0c0.6-0.2,1.1-0.8,1.4-1.6c0.3-0.8,0.6-1.8,0.7-2.9c0.3-2,0.3-4.3,0.3-5.7c0.3,0.8,0.5,1.5,0.8,2.3
								c0.8,2.1,1.7,4.2,1.7,5.8c0,0.4-0.2,0.8-0.6,1.2c-0.4,0.4-0.9,0.9-1.4,1.4c-1.1,1-2.4,2-3.1,3c-0.2,0.3-0.5,0.8-0.7,1.5
								c-0.3,0.6-0.6,1.3-1,2c-0.8,1.4-1.9,2.5-3.5,2.5c-0.5,0-1-0.2-1.2-0.4c-0.3-0.3-0.4-0.6-0.4-1c0,0,0,0,0,0c0,0,0,0,0,0
								c0,0,0,0,0,0c0,0,0,0,0,0c0,0,0,0,0,0c0,0,0,0,0,0c0,0,0,0,0,0c0,0,0,0,0,0c0,0,0,0,0,0c-0.5,0.5-0.7,1.3-0.4,1.9
								c0.3,0.7,1,1.3,2.3,1.3c1,0,1.9-0.3,2.6-0.8c-1.2,2-3.5,4.4-6.1,6.9c-0.8,0.7-1.6,1.5-2.4,2.2c-0.6,0.4-1.6,0.7-2.2,0.7
								c-0.6,0-1.2-0.3-1.9-0.6c-0.7-0.3-1.4-0.6-2-0.6c-0.4,0-0.8,0.1-1.1,0.3c-0.3-0.2-0.7-0.3-1.1-0.3c-1.2,0.1-2.2,1.5-0.8,2.5
								c-0.2-0.7,0.5-1.3,1.4-0.9c0.1,0.7,0.7,1.2,1.4,1.2c0.2,0,0.5-0.1,0.7-0.3c0.2-0.1,0.5-0.2,0.7-0.2c0.1,0,0.3,0.1,0.5,0.2
								c0.2,0.1,0.3,0.3,0.6,0.3c0.1,0,0.2,0.1,0.4,0.1c0,0-0.1,0-0.2,0c-0.5,0.1-1.6-0.1-2.6-0.1c-0.4,0-0.8,0.2-1,0.5
								c-0.2-0.1-0.4-0.1-0.6-0.1c-0.1,0-0.2,0-0.3,0c-0.6,0-1.1,0.3-1.4,0.8c-0.5,0.7-0.4,2,0.8,2.3c-0.4-0.9,0.3-1.7,1.4-1.4
								c0.1,0.1,0.1,0.2,0.2,0.3c0.2,0.3,0.6,0.5,1.1,0.5c0.3,0,0.5-0.1,0.7-0.2c0.2-0.1,0.3-0.3,0.4-0.4c0.1-0.2,0.2-0.3,0.2-0.4
								c0.1-0.1,0.1-0.2,0.2-0.2c0.3,0,0.5,0,0.7,0.1c0.2,0,0.3,0,0.5,0c-0.2,0.1-0.4,0.2-0.5,0.3c-0.5,0.3-1.1,0.6-1.5,1
								c-0.4,0.3-0.7,0.7-0.8,1c0,0.1,0,0.3,0,0.4c-0.6,0.4-1,1.1-1.1,1.7c-0.1,0.8,0.6,1.8,1.9,1.7c-0.6-0.5-0.5-1.4,0.2-1.8
								c0.2,0.2,0.6,0.4,1,0.4c0.4,0,0.8-0.1,1.1-0.5c0.3-0.5,0.4-1.1,0.5-1.7c0.1-0.6,0.2-1.2,0.6-1.5c0.4-0.3,0.8-0.5,1.2-0.6
								c0.4-0.1,0.8-0.1,1.4-0.2c0.9-0.2,1.6-0.8,2.2-1.8c0.4-0.2,1-0.2,1.5,0c0.2,0.1,0.4,0.4,0.7,0.6c0.3,0.2,0.6,0.5,0.9,0.5
								c0.4,0,0.8-0.1,1.1-0.4c0.3-0.3,0.6-0.6,0.6-1.1c0-0.1,0-0.1,0-0.2c0.8-0.5,1.7,0,1.7,1c1-1,0.8-2,0.2-2.5
								c-0.4-0.3-1-0.5-1.7-0.5c-0.3,0-0.6,0.1-0.9,0.2c-0.3-0.3-0.7-0.5-1.1-0.5c-0.4,0-0.9,0.2-1.4,0.5c-0.3,0.2-0.6,0.3-0.9,0.5
								c1.1-1.2,2.7-2.5,4.2-3.8c0.9-0.8,1.8-1.7,2.6-2.5c0.1-0.1,0.3-0.2,0.6-0.3c0.3-0.1,0.6-0.2,1-0.3c0.7-0.2,1.4-0.5,1.9-1
								c0.1,0.2,0.2,0.4,0.3,0.6c0.4,0.6,0.9,1.1,1.8,1.2c0,0,0,0,0,0c0,0,0,0,0,0c0,0,0,0,0,0c0,0,0,0,0,0c0,0,0,0,0,0c0,0,0,0,0,0
								c0,0,0,0,0,0c0,0,0,0,0,0c-0.4-1.9-0.3-3.5,0.1-4.6c0.4-1.1,1.2-1.8,2.1-2c0.1,0.6,0.1,1.7,0,3c-0.2,1.3-0.5,2.9-1,4.2
								c-0.5,1.4-1.2,2.6-2.1,3.4c-0.9,0.8-1.9,1.1-3.1,0.6c0,0,0,0,0,0c0,0,0,0,0,0c0,0,0,0,0,0c0,0,0,0,0,0c0,0,0,0,0,0
								c0,0,0,0,0,0c0,0,0,0,0,0c0,0,0,0,0,0c0,0,0,0,0,0c0,0,0,0,0,0c0.4,1.5,1.8,2.3,3.2,2.3c1.2,0,2.1-0.5,2.9-1.3
								c0,0,0.1,0,0.1-0.1c-0.2,0.7-0.5,1.6-1.1,2.4c-0.8,1-2.1,1.8-4.1,1.8c-1.4,0-2.8,0.3-3.6,1.3c-0.3,0.4-0.6,1.1-0.7,1.9
								c-0.1,0.7,0.1,1.6,0.7,2.2c0,0,0,0,0,0c0,0,0,0,0,0c0,0,0,0,0,0c0,0,0,0,0,0c0,0,0,0,0,0c0,0,0,0,0,0c0,0,0,0,0,0
								c0-0.6,0.3-1.1,0.8-1.5c0.5-0.4,1.3-0.6,2.4-0.6c2,0,3.7-0.7,5-2c-0.5,1.1-1.2,2.4-2.1,3.4c-1,1.1-2.2,1.9-3.3,2.3
								c-0.5,0.2-1.1,0.2-1.5,0.1c-0.4-0.1-0.8-0.3-1-0.7c0,0,0,0,0,0c0,0,0,0,0,0c0,0,0,0,0,0c0,0,0,0,0,0c-0.4,0-0.7,0.1-0.8,0.3
								c-0.2,0.2-0.3,0.5-0.3,0.9c0,0.7,0.2,1.5,0.7,1.9c0.4,0.4,1.1,0.6,1.7,0.7c0.5,0.1,1-0.1,1.4-0.2c-3.7,2.4-7.6,0.1-7.6-2.6
								c0-0.6,0.2-1.4,0.6-1.9c0.4-0.5,0.9-0.8,1.6-0.6c0,0,0,0,0,0c0,0,0,0,0,0c0,0,0,0,0,0c0,0,0,0,0,0c0,0,0,0,0,0c0,0,0,0,0,0
								c0,0,0,0,0,0c0,0,0,0,0,0c0,0,0,0,0,0c0,0,0,0,0,0c0,0,0,0,0,0c-0.3-0.7-0.9-1.2-1.7-1.2c-1.1,0-2.1,0.6-2.9,1.5
								c-0.7,0.9-1.2,2.2-1.2,3.4c0,1.6,0.5,3.1,1.7,4.3c1.2,1.2,3,2,5.6,2c1.6,0,3-0.5,4.2-1.3c-2.4,4.9,1.9,8.4,4.7,5.6
								c-2.7-0.3-2-3.4-0.1-4.7c1.9-1.3,2.9-2.9,3.4-4.8c-0.2,4.1-0.4,8-2.4,10.8c-0.6,0.8,0.5,1.3,1.9,1.3c0,0.9,1,1.7,2,1.7
								c1,0,2-0.8,2-1.7c1.4,0,2.5-0.5,1.9-1.3c-2-2.8-2.2-6.7-2.4-10.8c0.5,1.9,1.5,3.5,3.4,4.8c1.9,1.3,2.6,4.4-0.1,4.7
								c2.8,2.8,7.1-0.7,4.7-5.6c1.3,0.8,2.7,1.3,4.2,1.3c2.6,0,4.4-0.8,5.6-2c1.2-1.2,1.7-2.8,1.7-4.3c0-1.3-0.5-2.5-1.2-3.4
								c-0.7-0.9-1.7-1.5-2.9-1.5c-0.8,0-1.4,0.5-1.7,1.2c0,0,0,0,0,0c0,0,0,0,0,0c0,0,0,0,0,0c0,0,0,0,0,0c0,0,0,0,0,0c0,0,0,0,0,0
								c0,0,0,0,0,0c0,0,0,0,0,0c0,0,0,0,0,0c0,0,0,0,0,0c0.7-0.2,1.3,0.1,1.7,0.6c0.4,0.5,0.6,1.3,0.6,1.9c0,2.7-3.9,5.1-7.6,2.6
								c0.4,0.1,0.9,0.2,1.4,0.2c0.6-0.1,1.3-0.3,1.7-0.7c0.5-0.5,0.8-1.3,0.7-1.9c0-0.3-0.1-0.6-0.3-0.9c-0.2-0.2-0.5-0.3-0.9-0.3
								c0,0,0,0,0,0c0,0,0,0,0,0c0,0,0,0,0,0c-0.2,0.4-0.6,0.6-1,0.7c-0.4,0.1-0.9,0.1-1.5-0.1c-1.1-0.3-2.3-1.1-3.3-2.3
								c-0.9-1-1.7-2.3-2.1-3.4c1.3,1.3,3.1,2,5,2c1.1,0,1.9,0.2,2.4,0.6c0.5,0.4,0.8,0.9,0.8,1.5c0,0,0,0,0,0c0,0,0,0,0,0
								c0,0,0,0,0,0c0,0,0,0,0,0c0,0,0,0,0,0c0,0,0,0,0,0c0,0,0,0,0,0c0,0,0,0,0,0c0,0,0,0,0,0c0,0,0,0,0,0c0.6-0.6,0.7-1.5,0.7-2.2
								c-0.1-0.7-0.3-1.4-0.7-1.9c-0.8-1-2.2-1.3-3.6-1.3c-2,0-3.3-0.8-4.1-1.8c-0.6-0.8-0.9-1.6-1.1-2.4c0,0,0.1,0,0.1,0.1
								c0.7,0.8,1.7,1.3,2.9,1.3c1.4,0,2.8-0.8,3.2-2.3c0,0,0,0,0,0c0,0,0,0,0,0c0,0,0,0,0,0c0,0,0,0,0,0c0,0,0,0,0,0c0,0,0,0,0,0
								c0,0,0,0,0,0c0,0,0,0,0,0c0,0,0,0,0,0c0,0,0,0,0,0c-1.2,0.5-2.2,0.2-3.1-0.6c-0.9-0.8-1.6-2-2.1-3.4c-0.5-1.4-0.9-2.9-1-4.2
								c-0.2-1.3-0.2-2.4,0-3c0.9,0.2,1.6,0.9,2.1,2c0.4,1.1,0.5,2.7,0.1,4.6c0,0,0,0,0,0c0,0,0,0,0,0c0,0,0,0,0,0c0,0,0,0,0,0
								c0,0,0,0,0,0c0,0,0,0,0,0c0,0,0,0,0,0c0,0,0,0,0,0c0.9-0.1,1.5-0.6,1.8-1.2c0.1-0.2,0.2-0.4,0.3-0.6c0.4,0.5,1.2,0.8,1.9,1
								c0.4,0.1,0.7,0.2,1,0.3c0.3,0.1,0.5,0.2,0.6,0.3c2,2.2,5,4.4,6.8,6.3c-0.3-0.2-0.6-0.4-0.9-0.5c-0.5-0.3-1.1-0.5-1.4-0.5
								c-0.4,0-0.8,0.2-1.1,0.5c-0.4-0.2-0.9-0.3-1.3-0.2c-0.5,0-1,0.2-1.3,0.5c-0.6,0.5-0.8,1.5,0.2,2.5c0-0.9,0.9-1.4,1.7-1
								c0,0.1,0,0.1,0,0.2c0,0.5,0.2,0.8,0.6,1.1c0.3,0.3,0.8,0.4,1.1,0.4c0.4,0,0.7-0.2,0.9-0.5c0.3-0.2,0.5-0.5,0.7-0.6
								c0.4-0.3,1.1-0.2,1.5,0c0.6,1.1,1.4,1.6,2.2,1.8c0.5,0.1,0.9,0.1,1.4,0.2c0.4,0.1,0.8,0.2,1.2,0.6c0.4,0.3,0.5,0.9,0.6,1.5
								c0.1,0.6,0.1,1.3,0.5,1.7c0.3,0.4,0.7,0.5,1.1,0.5c0.4,0,0.8-0.2,1-0.4c0.7,0.4,0.8,1.2,0.2,1.8c1.2,0.2,1.9-0.9,1.9-1.7
								c0-0.7-0.5-1.3-1.1-1.7c0-0.1,0-0.3,0-0.4c-0.1-0.4-0.4-0.7-0.8-1c-0.4-0.3-0.9-0.6-1.5-1c-0.2-0.1-0.4-0.2-0.5-0.3
								c0.2,0,0.4,0,0.5,0c0.2,0,0.5-0.1,0.7-0.1c0.1,0,0.1,0,0.2,0.2c0.1,0.1,0.1,0.3,0.2,0.4c0.1,0.2,0.2,0.3,0.4,0.4
								c0.2,0.1,0.4,0.2,0.7,0.2c0.5,0,0.9-0.2,1.1-0.5c0.1-0.1,0.1-0.2,0.2-0.3c1.1-0.3,1.8,0.6,1.4,1.4c1.2-0.3,1.3-1.6,0.8-2.3
								c-0.4-0.5-1-0.8-1.8-0.8c-0.2,0-0.3,0-0.5,0.1c-0.2-0.3-0.6-0.5-1-0.5c-1,0-2.1,0.2-2.6,0.1c0,0-0.1,0-0.2,0
								c0.1,0,0.3,0,0.4-0.1c0.2-0.1,0.4-0.2,0.6-0.3c0.2-0.1,0.3-0.2,0.5-0.2c0.2,0,0.5,0.1,0.7,0.2c0.2,0.1,0.4,0.3,0.7,0.3
								c0.7,0,1.2-0.5,1.4-1.2c0.8-0.4,1.5,0.2,1.4,0.9c1.4-1.1,0.4-2.5-0.8-2.5c-0.3,0-0.7,0.1-1.1,0.3c-0.3-0.2-0.7-0.3-1.1-0.3
								c-0.6,0-1.3,0.3-2,0.6c-0.7,0.3-1.3,0.6-1.9,0.6c-0.7,0-1.7-0.3-2.3-0.7c-3.6-3.3-6.8-6.6-8.4-9.1c0.8,0.5,1.6,0.8,2.7,0.8
								c1.3,0,2-0.6,2.3-1.3c0.3-0.7,0.1-1.5-0.4-1.9c0,0,0,0,0,0c0,0,0,0,0,0c0,0,0,0,0,0c0,0,0,0,0,0c0,0,0,0,0,0c0,0,0,0,0,0
								c0,0,0,0,0,0c0,0,0,0,0,0c0,0,0,0,0,0c0,0,0,0,0,0c0,0.4-0.1,0.8-0.4,1c-0.3,0.3-0.7,0.4-1.2,0.4c-1.6,0-2.7-1.2-3.6-2.5
								c-0.4-0.7-0.7-1.4-1-2c-0.3-0.6-0.5-1.2-0.7-1.5c-0.7-1-2.3-2.1-3.6-3.1c-0.7-0.5-1.3-1-1.8-1.5c-0.5-0.5-0.7-0.9-0.7-1.3
								c0-3.6,0.6-6,2.6-9.7c0.1,0,0.1,0.1,0.2,0.1c0.3,0.2,0.5,0.5,0.8,0.8c0,0,0,0,0,0c0,0,0,0,0,0c0,1.4,0,4,0.3,6.3
								c0.2,1.1,0.4,2.2,0.7,3.1c0.3,0.8,0.8,1.4,1.4,1.6c0,0,0,0,0.1,0c0,0,0,0,0,0c0,0,0,0,0,0c0,0,0,0,0,0c0,0,0,0,0,0
								c0,0,0,0,0,0c0,0,0,0,0,0c0,0,0,0,0,0c-0.4-0.8-0.6-2.6-0.8-4.5c-0.1-1.5-0.2-3-0.2-4.4c1.2,7.7,4,12,6.5,14
								c0.8,0.7,1.5,1.2,2.1,1.5c0.6,0.3,1.1,0.5,1.4,0.5c0.6,0,1.1-0.1,1.3-0.4c0.3-0.2,0.4-0.6,0.4-0.9c0-0.1-0.1-0.3-0.2-0.4
								c-0.1-0.1-0.3-0.3-0.4-0.5c-0.3-0.3-0.7-0.7-0.9-1.1c-0.4-0.9-1.5-2.8-2-3.9c-0.7-1.5-1.6-4.2-2.2-6.8
								c0.7,1.6,1.7,3.4,2.8,5.2c1.9,3,4.2,6,6.2,7.8c2.5,2.3,5.4,4,7.8,4c0.7,0,1.4-0.2,1.9-0.5c0.5-0.3,0.9-0.7,0.9-1.2
								c0-0.3-0.1-0.5-0.3-0.6c-0.2-0.1-0.4-0.2-0.7-0.4c-0.6-0.3-1.5-0.6-2.6-1.5c-2.5-2-4.7-5-6.9-8.8c0.8,0.9,1.7,1.9,2.5,2.7
								c1.3,1.3,2.6,2.5,3.8,3.4c1.1,0.8,2.1,1.3,2.9,1.3c0,0,0,0,0,0c0,0,0,0,0,0c0,0,0,0,0,0c0,0,0,0,0,0c0,0,0,0,0,0c0,0,0,0,0,0
								c0,0,0,0,0,0c0,0,0,0,0,0c0,0,0,0,0,0c0,0,0,0,0,0c0,0,0,0,0,0c-3.1-2-6.1-5.5-8.4-8.6c2.6,2.5,5.7,4.5,8.6,4.5
								c1.2,0,2.1-0.4,2.6-0.8c0.2-0.2,0.4-0.5,0.4-0.8c0-0.3-0.1-0.6-0.4-0.9c0,0,0,0,0,0c0,0,0,0,0,0c0,0,0,0,0,0
								c-2.3-0.3-5-2.3-7.3-4.6c-0.6-0.6-1.2-1.3-1.8-2c2.3,1.8,5.2,3.4,8.3,3.5c0,0,0,0,0,0c0,0,0,0,0,0c0,0,0,0,0,0c0,0,0,0,0,0
								c0,0,0,0,0,0c0,0,0,0,0,0c0,0,0,0,0,0c0,0,0,0,0,0c0,0,0,0,0,0c0,0,0,0,0,0c0,0,0,0,0,0c0,0,0,0,0,0c-2-0.7-5-2.3-7.2-4.5
								c1.6,0.7,3.4,1.1,4.9,1.1c1.2,0,2.4-0.3,3.2-0.8c0.4-0.2,0.7-0.5,0.9-0.9c0.2-0.3,0.2-0.7,0.1-1.1c0,0,0,0,0,0c0,0,0,0,0,0
								c0,0,0,0,0,0c0,0,0,0,0,0c0,0,0,0,0,0c0,0,0,0,0,0c-0.9,0.1-2.8-0.1-4.9-1c-1.4-0.6-2.8-1.4-4.1-2.6c1,0.5,2.1,1,3.2,1.4
								c1.2,0.4,2.4,0.7,3.5,0.8c1,0.1,1.9-0.1,2.4-0.6c0,0,0,0,0,0c0,0,0,0,0,0c0,0,0,0,0,0c0,0,0,0,0,0c0,0,0,0,0,0c0,0,0,0,0,0
								c0,0,0,0,0,0c0,0,0,0,0,0c0,0,0,0,0,0c0,0,0,0,0,0c-1.4-0.2-4.9-0.9-7.8-2.7c1.7,0.3,3.5,0.3,5,0c1.2-0.3,2.3-0.8,2.8-1.6
								c0.6-0.8,0.6-1.9,0-3.2c0,0,0,0,0,0c0,0,0,0,0,0c0,0,0,0,0,0c0,0,0,0,0,0c0,0,0,0,0,0c0,0,0,0,0,0c0,0,0,0,0,0c0,0,0,0,0,0
								c-0.2,0.4-0.7,0.6-1.4,0.8c-0.7,0.1-1.6,0.2-2.5,0c-1.1-0.1-2.4-0.5-3.6-1.1c2.1,0.2,4,0,5.4-0.4c1.8-0.5,3-1.5,3.2-2.7
								c0,0,0,0,0,0c0,0,0,0,0,0c0,0,0,0,0,0c0,0,0,0,0,0c0,0,0,0,0,0c0,0,0,0,0,0c0,0,0,0,0,0c0,0,0,0,0,0c0,0,0,0,0,0c0,0,0,0,0,0
								c0,0,0,0,0,0c0,0,0,0,0,0c-0.9,0.9-2.8,1.4-4.8,1.5c-1,0.1-2,0.1-2.9,0.1c1.2-0.3,2.3-0.8,3.2-1.4c1.8-1.1,3.1-2.7,3.6-4
								c0.2-0.6,0.2-1.3-0.1-1.8c-0.1-0.2-0.3-0.5-0.6-0.6c-0.2-0.1-0.5-0.1-0.9,0c0,0,0,0,0,0c0,0,0,0,0,0c0,0,0,0,0,0
								c-0.8,1.1-2.3,1.9-4.1,2.4c-1,0.3-2.2,0.5-3.3,0.7c2.1-0.7,3.5-1.6,4.5-2.5c1.2-1.1,1.7-2.2,1.7-2.8c0,0,0,0,0,0c0,0,0,0,0,0
								c0,0,0,0,0,0c0,0,0,0,0,0c0,0,0,0,0,0c0,0,0,0,0,0c0,0,0,0,0,0c0,0,0,0,0,0c0,0,0,0,0,0c0,0,0,0,0,0c0,0,0,0,0,0
								c-1.3,1.8-4.1,3.2-7.1,3.9c2.5-1.2,4.1-3.1,4.8-4.7c0.5-1.1,0.6-2.1,0.4-2.8c-0.1-0.4-0.3-0.6-0.5-0.8s-0.6-0.2-1-0.1
								c0,0,0,0,0,0c0,0,0,0,0,0c-1.7,1.8-3.6,3.6-6.5,4.6c1-0.7,1.7-1.8,1.9-3c0.1-0.8,0.1-1.5-0.3-2.1c-0.4-0.6-1-1-1.9-1.2
								c0,0,0,0,0,0c0,0,0,0,0,0c0,0,0,0,0,0c0,0,0,0,0,0c0,0,0,0,0,0c0,0,0,0,0,0c0,0,0,0,0,0c0,0,0,0,0,0c0,0,0,0,0,0c0,0,0,0,0,0
								c0,0,0,0,0,0c0,0,0,0,0,0c0.7,0.6,1,1.2,1.1,1.8c0.1,0.6-0.1,1.1-0.5,1.6c-0.7,1-2.2,1.9-3.5,2.4c-1,0.4-1.8,0.9-2.5,1.4
								c-0.7,0.6-1.1,1.3-1.1,2.1c0,0.5,0.3,1,0.7,1.5c0.4,0.4,0.9,0.9,1.4,1.4c1,0.9,2,2,2,3.7c0,3-2.1,5.4-5.2,5.4
								c-2.4,0-3.8-0.8-5.2-1.5c-1.4-0.8-2.7-1.5-4.9-1.5c-1.9,0-3,0.5-3.6,0.8c1.2-1.5,2.3-3.3,2.4-5.3c0.1,0.5,0.4,1.2,0.9,1.9
								c0.7,0.8,1.8,1.4,3.6,1c0,0,0,0,0,0c0,0,0,0,0,0c0,0,0,0,0,0c0,0,0,0,0,0c0,0,0,0,0,0c0,0,0,0,0,0c0,0,0,0,0,0c0,0,0,0,0,0
								c0,0,0,0,0,0c0,0,0,0,0,0c0,0,0,0,0,0c-0.9-0.2-1.5-0.7-2-1.3c-0.4-0.6-0.7-1.4-0.8-2.2c-0.3-1.7-0.2-3.6-0.3-5.2
								c0.4,0.4,1.1,0.6,1.6,0.5c0.6-0.1,1.2-0.6,1.4-1.4c0,0,0,0,0,0c0,0,0,0,0,0c0,0,0,0,0,0c0,0,0,0,0,0c0,0,0,0,0,0c0,0,0,0,0,0
								c0,0,0,0,0,0c0,0,0,0,0,0c0,0,0,0,0,0c-0.8,0.3-1.3,0.2-1.6,0c-0.4-0.2-0.6-0.6-0.8-1c-0.4-0.9-0.7-2.1-1.5-3.1
								c0.5,0.4,1.1,0.7,1.7,0.7c0.8,0,1.5-0.4,1.9-1.5c0,0,0,0,0,0c0,0,0,0,0,0c0,0,0,0,0,0c0,0,0,0,0,0c0,0,0,0,0,0c0,0,0,0,0,0
								c0,0,0,0,0,0c0,0,0,0,0,0c0,0,0,0,0,0c0,0,0,0,0,0c0,0,0,0,0,0c-0.4,0.3-0.9,0.4-1.4,0.4c-0.5,0-1-0.1-1.3-0.4
								c-0.5-0.5-0.7-1-1.1-1.6c-0.3-0.5-0.8-0.9-1.6-1.1C-197.8-6.3-197.3-8.7-198.6-9.5C-198.5-9.5-198.5-9.5-198.6-9.5
								C-198.5-9.5-198.5-9.5-198.6-9.5C-198.5-9.5-198.5-9.5-198.6-9.5C-198.5-9.5-198.6-9.5-198.6-9.5
								C-198.6-9.5-198.6-9.5-198.6-9.5z"/>
							<path class="st20" d="M-178,5.1c3.9-0.5,7.7-2.1,9.3-4.4c0,1.1-1.8,4.4-8,5.9"/>
							<path class="st20" d="M-175,10.6c2.5,0.4,8.3,0.5,10.1-1.4c-0.4,2.4-4.4,3.9-10.7,2.9"/>
							<path class="st20" d="M-176.2,15.3c3,3.4,8.6,4.7,10.5,4.9c-1.9,1.9-9.7-1.2-11.4-3.5"/>
							<path class="st20" d="M-177.2,20.7c1.9,3.9,6.9,6.8,9.8,7.8c-4.8-0.1-9.3-4-11.5-6.6"/>
							<path class="st20" d="M-181,25.1c2.1,3.5,6.9,10.2,11.7,13.3c-2.9,0.1-10.3-8.1-14-13.2"/>
							<path class="st20" d="M-193.9,23.6c-0.1,3.2,0.2,8.3,0.9,10.1c-2.3-0.6-2.4-8.1-2.4-10.9"/>
							<path class="st20" d="M-177.6,6.5c4.2-0.3,8.7-1.2,10.3-3.4c1.3-0.4,1.8,1.1,1.4,2.3c-0.8,2.5-5.2,6.2-10.2,5.4"/>
							<path class="st20" d="M-175.8,10.9c3.8,3.2,9.2,3.4,10.1,1.8c2.4,5.3-6.1,5.9-11.2,3.6"/>
							<path class="st20" d="M-176.9,16.3c3.5,5,9.5,6.3,11.3,6c0.4,1.4-1.7,2.7-4.1,2.6c-3.4-0.1-7.9-1.8-9.4-4.7"/>
							<path class="st20" d="M-179.2,20.2c1.9,3.6,7.8,10.8,12.6,11.5c1.1,1-0.1,2.4-2.5,2.4c-5.9,0-12.7-8.4-14.4-12"/>
							<path class="st20" d="M-183.6,22.2c4.3,8.1,7.6,14.3,11.8,17.7c2.2,1.8,3.6,1.4,3.6,2.4c0,0.8-1.3,1.6-2.7,1.6
								c-2.3,0-5.2-1.7-7.7-4c-4-3.6-9.1-11.8-10.1-16.1"/>
							<path class="st20" d="M-188.2,23.9c0.2,3.3,1.5,7.8,2.6,10c0.5,1,1.5,3,2,3.9c0.4,0.7,1.5,1.6,1.5,1.9c0,0.6-0.4,1.3-1.6,1.2
								c-0.7,0-1.9-0.7-3.5-2c-2.6-2.1-5.5-6.7-6.6-15.1"/>
							<path class="st20" d="M-213.2,23.6c0.1,3.2-0.2,8.3-0.9,10.1c2.3-0.6,2.4-7.6,2.3-10.5"/>
							<path class="st21" d="M-230.9,15.3c-3,3.4-8.6,4.7-10.5,4.9c1.9,1.9,9.7-1.2,11.4-3.5"/>
							<path class="st21" d="M-229.9,20.7c-1.9,3.9-6.9,6.8-9.8,7.8c4.8-0.1,9.3-4,11.5-6.6"/>
							<path class="st21" d="M-226.1,25.1c-2.1,3.5-6.9,10.2-11.7,13.3c2.9,0.1,10.3-8.1,14-13.2"/>
							<path class="st20" d="M-232.2,10.6c-2.5,0.4-8.3,0.5-10.1-1.4c0.4,2.4,4.4,3.9,10.7,2.9"/>
							<path class="st20" d="M-229.1,5.1c-3.9-0.5-7.7-2.1-9.3-4.4c0,1.1,1.8,4.4,8,5.9"/>
							<path class="st21" d="M-203.1-2.7c1.8,0.5,2.6,2.4,2.5,5.9"/>
							<path class="st21" d="M-203-5.9c0.8,0.1,1.5,0.3,2.3,1.1"/>
							<path class="st21" d="M-205.2-5.9c-0.9,1.4-3.4,0.6-5.2,0.6c-0.2-2.2,3.5-2.8,6.2-2.3c3.7,0.7,5.6-0.5,5.7-1.8
								c1.2,0.8,0.7,3.2-1.1,3.2c1.8,0.4,1.8,1.8,2.8,2.8c0.6,0.6,2,0.6,2.8,0c-0.8,2.2-3,1.5-3.9,0.6c2,2.1,1.1,5.4,4.1,4.4
								c-0.4,1.7-2.2,1.7-3.1,0.8c0.4,3.3-0.5,8,3.2,9c-3.5,0.8-4.4-2.4-4.5-3.2c0,4.1-4.8,8.2-5.8,8.2c-0.3,0-0.6-0.2-0.7-0.4"/>
							<path class="st21" d="M-203.2,12.3c2.2-1.9,3.5-4.4,3.7-6.6"/>
							<path class="st21" d="M-208.5-5.2c0.4,0,1.5,1.1,1.8,1.7"/>
							<path class="st21" d="M-206.8-5.1c0.1,0.4,0,0.9-0.2,1.2"/>
							<path class="st21" d="M-204,4c0.4,6.3-8.8,10.9-9.6,6.3c-0.8,0.6-0.6,2,0,2.7c0.9,1,3.2,1.3,4.7,0.2"/>
							<path class="st21" d="M-197.2,19.4c-1.5-0.7-3.7,1.3-4.7,3"/>
							<path class="st22" d="M-209,28C-209.1,28-209.1,28-209,28C-209.1,28-209.1,28.1-209,28c-0.1,0.1-0.1,0.1-0.1,0.1
								c0,0,0,0.1,0,0.1c0.4,1.1,0.8,1.7,1.2,2.3c0.4,0.6,0.8,1.3,0.8,2.4c0,0,0,0,0,0c0,0,0,0,0.1,0.1c0,0,0,0,0,0c0,0,0,0,0,0
								c0,0,0,0,0,0c0,0,0,0,0,0c0,0,0,0,0,0c0,0,0,0,0,0c0-1.2-0.3-2-0.7-2.6c-0.4-0.6-0.9-1.2-1.4-2.2
								C-208.9,28.1-208.9,28-209,28C-209,28-209,28-209,28C-209,28-209,28-209,28z"/>
							<path class="st21" d="M-198.2,34.5c1.1,0.7,2.2,1.4,3.1,2.9"/>
							<path class="st22" d="M-208.5,38.8c-0.8,0.1-1.7,0.8-2.3,1.8c0,0,0,0,0,0c0,0,0,0,0,0c0,0,0,0,0,0.1c0,0,0,0,0,0c0,0,0,0,0,0
								c0,0,0,0,0,0c0,0,0,0,0.1,0c0.6-1,1.4-1.5,2.1-1.6c0.8-0.1,1.5,0.1,2,1c0,0,0,0,0,0c0,0,0,0,0,0c0,0,0,0,0,0c0,0,0,0,0,0
								c0,0,0,0,0.1-0.1c0,0,0,0,0,0c0,0,0,0,0-0.1c0,0,0,0,0,0C-206.8,39.1-208.5,38-208.5,38.8z"/>
							<path class="st21" d="M-209.1-1.8c-0.1-0.6-0.5-1.1-1-1.5"/>
							<path class="st21" d="M-205.5-2.7c1.1-0.2,2.1,0.1,2.3,0c0.2-0.1,0.3-0.3,0.2-0.5"/>
							<path class="st21" d="M-203.6,77.2v-9"/>
							<path class="st23" d="M-203.6,43.7v9.5"/>
							<path class="st21" d="M-227,12.9c0.4,4.5,5.4,6.5,8.3,5.9"/>
							<path class="st21" d="M-212.1,16.6c-0.9-0.5-1.7-0.3-2.6-0.1"/>
							<path class="st20" d="M-227.1,1.4c-3.8-1-5.9-3-7.9-5.1c-3-0.7-1.8,7.4,6.6,9.3"/>
							<path class="st20" d="M-229.5,6.5c-4.2-0.3-8.7-1.2-10.3-3.4c-1.3-0.4-1.8,1.1-1.4,2.3c0.8,2.5,5.2,6.2,10.2,5.4"/>
							<path class="st20" d="M-231.3,10.9c-3.8,3.2-9.2,3.4-10.1,1.8c-2.4,5.3,6.1,5.9,11.2,3.6"/>
							<path class="st20" d="M-230.3,16.3c-3.5,5-9.5,6.3-11.3,6c-0.4,1.4,1.7,2.7,4.1,2.6c3.4-0.1,7.9-1.8,9.4-4.7"/>
							<path class="st20" d="M-227.9,20.2c-1.9,3.6-7.8,10.8-12.6,11.5c-1.1,1,0.1,2.4,2.5,2.4c5.9,0,12.7-8.4,14.4-12"/>
							<path class="st20" d="M-223.5,22.2c-4.3,8.1-7.6,14.3-11.8,17.7c-2.2,1.8-3.6,1.4-3.6,2.4c0,0.8,1.3,1.6,2.7,1.6
								c2.3,0,5.2-1.7,7.7-4c4-3.6,9.1-11.8,10.1-16.1"/>
							<path class="st20" d="M-218.9,23.9c-0.2,3.3-1.5,7.8-2.6,10c-0.5,1-1.5,3-2,3.9c-0.4,0.7-1.5,1.6-1.5,1.9
								c0,0.6,0.4,1.3,1.6,1.2c0.7,0,1.9-0.7,3.5-2c2.6-2.1,5.5-6.7,6.6-15.1"/>
							<path class="st22" d="M-233.1,0.5C-233.1,0.5-233.2,0.5-233.1,0.5C-233.2,0.5-233.2,0.5-233.1,0.5c-0.1,0.1-0.1,0.1-0.1,0.1
								c0,0,0,0,0,0c0,0,0,0,0,0c1.5,1.5,3.7,4.5,5.2,3l0.4-0.4c-2-0.6-4-1.3-5.4-2.8C-233,0.5-233,0.5-233.1,0.5
								C-233,0.5-233,0.5-233.1,0.5C-233.1,0.5-233.1,0.5-233.1,0.5z M-237.3,6.6C-237.4,6.6-237.4,6.6-237.3,6.6
								C-237.4,6.6-237.4,6.7-237.3,6.6c-0.1,0.1-0.1,0.1-0.1,0.1c0,0,0,0.1,0,0.1c1.4,1.5,4,2.4,7.1,2.2l0.4-0.4
								c-3.1,0.2-6-0.5-7.3-2C-237.2,6.6-237.2,6.6-237.3,6.6C-237.3,6.6-237.3,6.6-237.3,6.6C-237.3,6.6-237.3,6.6-237.3,6.6z
								 M-231.3,14c-1,0.8-2.5,1.4-3.9,1.6c-1.4,0.2-2.6,0.2-3.3,0c0,0,0,0,0,0c0,0-0.1,0-0.1,0c0,0,0,0.1,0,0.1c0,0,0,0,0,0
								c0,0,0.1,0.1,0.1,0.1c0.7,0.1,2,0.3,3.4,0.1c1.4-0.2,2.9-0.7,3.9-1.5L-231.3,14z M-228.5,18.3l-0.5,0c-1.8,2.2-4,3.9-7.1,4.6
								c0,0,0,0,0,0c0,0,0,0,0,0c0,0,0,0,0,0c0,0,0,0,0,0.1c0,0,0,0.1,0,0.1c0,0,0,0,0,0c0,0,0,0,0,0c0,0,0,0,0,0
								c3.2-0.6,5.8-2.4,7.6-4.6L-228.5,18.3z M-226.2,21.5c-1.9,3.7-4.7,6.2-7.6,8.6c0,0,0,0,0,0c0,0,0,0.1,0,0.1c0,0,0,0,0,0
								c0,0,0,0,0,0c0,0,0,0,0.1,0c0,0,0,0,0.1,0c0,0,0,0,0,0c2.9-2.4,11.5-6.5,7.8-8.6L-226.2,21.5z M-216.3,22.9
								c-0.1,4.4-1.3,8.1-3.4,11.5c0,0,0,0,0,0c0,0,0,0,0,0.1c0,0,0,0,0,0c0,0,0,0,0.1,0.1c0,0,0,0,0.1,0c0,0,0,0,0,0c0,0,0,0,0,0
								c0,0,0,0,0,0c2.1-3.4,8-11.4,3.6-11.6L-216.3,22.9z M-222,23.2c-1.3,5.9-4.3,9.9-8.6,14.7c0,0,0,0.1,0,0.1c0,0,0,0,0,0
								c0,0,0,0,0,0c0,0,0,0,0,0c0,0,0,0,0,0c0,0,0.1,0,0.1,0c0,0,0,0,0,0c3.4-3.5,15.4-14,9-14.8L-222,23.2z"/>
							<path class="st20" d="M-229.9,12.1c-2.4,1.4-1,4.3,1,2.8"/>
							<path class="st20" d="M-229.5,15.2c-2,2.1,0.2,4.4,1.8,2.4"/>
							<path class="st20" d="M-227.9,17.4c-1.7,2.4,0.8,4.3,2.1,2.1"/>
							<path class="st20" d="M-225.7,19.1c-2.2,2.7,0.9,4.9,2.7,2.4"/>
							<path class="st20" d="M-228.8,8.3c-3.2,0.6-2.9,4.2-0.4,3.5"/>
							<path class="st20" d="M-228.8,8.3c-1.8,0-0.8-2.7,0.9-2.5"/>
							<path class="st20" d="M-226.5,3.5c-1.4-0.9-2.8,1.6-1.5,2.4"/>
							<path class="st20" d="M-222.6,20.4c-2.2,2.7,0.9,4.9,2.7,2.4"/>
							<path class="st20" d="M-219.2,20.6c-2,2.7,0.9,4.9,2.5,2.4"/>
							<path class="st20" d="M-216.2,20.4c-1.7,2.4,0.5,4.3,2.2,2.7"/>
							<path class="st20" d="M-213.8,20.4c-1.7,2.3,0.3,4.1,2,2.8"/>
							<path class="st21" d="M-223.2,3.4c0.2,0.5-0.4,1.2-0.9,1.7"/>
							<path class="st21" d="M-180.1,12.9c-0.4,4.5-5.4,6.5-8.3,5.9"/>
							<path class="st21" d="M-195,16.6c0.9-0.5,1.8-0.3,2.6-0.1"/>
							<path class="st20" d="M-180,1.4c3.8-1,5.9-3,7.9-5.1c3-0.7,1.8,7.4-6.6,9.3"/>
							<path class="st22" d="M-174,0.5C-174,0.5-174,0.5-174,0.5C-174.1,0.5-174.1,0.5-174,0.5c-0.1,0-0.1,0-0.1,0
								c-1.4,1.4-3.4,2.2-5.4,2.8l0.4,0.4c2.1-0.6,3.7-1.5,5.2-3c0,0,0,0,0,0c0,0,0,0,0,0C-173.9,0.6-173.9,0.6-174,0.5
								C-173.9,0.5-173.9,0.5-174,0.5C-173.9,0.5-174,0.5-174,0.5z M-169.8,6.6C-169.8,6.6-169.8,6.6-169.8,6.6
								C-169.9,6.6-169.9,6.6-169.8,6.6c-0.1,0-0.1,0-0.1,0c-1.4,1.4-4.3,2.1-7.3,2l0.4,0.4c3.1,0.2,5.6-0.7,7.1-2.2
								c0,0,0-0.1,0-0.1C-169.7,6.7-169.7,6.7-169.8,6.6C-169.7,6.7-169.7,6.6-169.8,6.6C-169.7,6.6-169.8,6.6-169.8,6.6L-169.8,6.6
								z M-175.8,14l-0.1,0.4c0.9,0.7,2.5,1.2,3.9,1.5c1.4,0.2,2.7,0.1,3.4-0.1c0,0,0.1,0,0.1-0.1c0,0,0,0,0,0c0,0,0-0.1,0-0.1
								c0,0,0,0-0.1,0c0,0,0,0,0,0c-0.7,0.1-1.9,0.2-3.3,0C-173.3,15.3-174.8,14.8-175.8,14z M-178.6,18.3l0,0.2
								c-0.2,2.8,4.4,4,7.6,4.6c0,0,0,0,0,0c0,0,0,0,0,0c0,0,0,0,0,0c0,0,0-0.1,0-0.1c0,0,0-0.1,0-0.1c0,0,0,0,0,0c0,0,0,0,0,0
								c0,0,0,0,0,0c-3.1-0.7-5.3-2.4-7.1-4.6L-178.6,18.3z M-181,21.5l-0.4,0.2c-3.6,2,4.9,6.1,7.8,8.6c0,0,0,0,0,0c0,0,0,0,0.1,0
								c0,0,0.1,0,0.1,0c0,0,0,0,0,0c0,0,0,0,0,0c0,0,0-0.1,0-0.1c0,0,0,0,0,0C-176.3,27.6-179.1,25.1-181,21.5z M-190.8,22.9
								l-0.4,0c-4.4,0.2,1.5,8.2,3.6,11.6c0,0,0,0,0,0c0,0,0,0,0,0c0,0,0,0,0,0c0,0,0,0,0.1,0c0,0,0,0,0.1-0.1c0,0,0,0,0,0
								c0,0,0,0,0-0.1c0,0,0,0,0,0C-189.5,31.1-195.2,22.9-190.8,22.9z M-185.2,23.2l-0.5,0.1c-6.4,0.8,4.8,10.5,9,14.8c0,0,0,0,0,0
								c0,0,0,0,0.1,0c0,0,0,0,0,0c0,0,0,0,0,0c0,0,0,0,0,0c0,0,0,0,0,0c0,0,0-0.1,0-0.1C-180.8,33.1-183.9,29.1-185.2,23.2z"/>
							<path class="st20" d="M-177.3,12c2.6,1.4,1.1,4.3-0.9,2.9"/>
							<path class="st20" d="M-177.5,15.3c1.7,1.9,0.2,3.8-1.3,2.9"/>
							<path class="st20" d="M-179.3,17.4c1.7,2.4-0.8,4.3-2.1,2.1"/>
							<path class="st20" d="M-181.4,19.1c2.2,2.7-0.9,4.9-2.7,2.4"/>
							<path class="st20" d="M-178.3,8.3c3.2,0.6,2.9,4.2,0.4,3.5"/>
							<path class="st20" d="M-178.3,8.3c1.8,0,0.8-2.7-0.9-2.5"/>
							<path class="st20" d="M-180.7,3.5c1.4-0.9,2.8,1.6,1.5,2.4"/>
							<path class="st20" d="M-184.5,20.4c2.2,2.7-0.9,4.9-2.7,2.4"/>
							<path class="st20" d="M-187.9,20.6c2,2.7-0.9,4.9-2.5,2.4"/>
							<path class="st21" d="M-183.9,3.4c-0.2,0.5,0.4,1.2,0.9,1.7"/>
							<path class="st22" d="M-212.8,42.9c-0.1,0.6-0.2,1.4-0.3,2.1c-0.4,0.1-0.8,0.3-1.1,0.7c0,0,0,0,0,0c0,0,0,0,0,0c0,0,0,0,0,0
								c0,0,0,0.1,0.1,0.1c0,0,0,0,0,0c0,0,0.1,0,0.1,0c0.2-0.3,0.6-0.4,1.2-0.5c0,0,0.1,0,0.1-0.1c0,0,0,0,0,0
								c0-0.8,0.1-1.5,0.1-2.2L-212.8,42.9z"/>
							<path class="st21" d="M-216.7,44c-1.7,2.8-5.6,6.7-9.8,10.5c-0.9,0.8-1.9,1.2-2.6,1.4c-0.6,0.1-1.7-0.1-2.6-0.1
								c-0.7,0-1.2,0.7-1.2,1.3c0,0.7,0.5,1.5,1.4,1.5c1.1,0,1-1.2,1.5-1.2c0.6,0,0.9,0.2,1.6,0.1"/>
							<path class="st21" d="M-226.6,55.9c-1.2,1.5-4.7,2.6-5,4c-0.2,0.7,0.3,1.4,0.9,2c0.5,0.4,1.5,0.6,2-0.1
								c0.6-0.9,0.2-2.5,1-3.2c0.8-0.7,1.6-0.6,2.6-0.8c0.9-0.2,1.6-0.7,2.2-1.8c0.4-0.2,1.1-0.3,1.5,0c0.5,0.3,0.9,1.1,1.6,1.1
								c0.7,0,1.6-0.5,1.6-1.4c0-1.2-0.7-2.4-1.8-2.4c-0.7,0-2.1,0.8-2.9,1.3c1.8-2.1,5.1-4.4,7.2-6.7c0.5-0.5,2.7-0.6,3.5-1.7"/>
							<path class="st21" d="M-225.2,53.3c-0.6,0.5-1.7,0.8-2.5,0.8c-1.2,0-2.7-1.3-3.9-1.3c-0.8,0-1.6,0.5-1.6,1.2
								c0,0.9,0.6,1.5,1.3,1.5c0.4,0,0.9-0.5,1.4-0.5c0.4,0,0.7,0.5,1.1,0.6c0.3,0.1,0.8,0.1,1.1,0"/>
							<path class="st20" d="M-209.2,66.4c-0.6,0.5-1.2,1.1-1.8,1.7c-6.3,6.3-0.8,11.9,2.5,8.5c-2.7-0.3-2-3.4-0.1-4.7
								c1.9-1.3,2.9-2.9,3.4-4.8c-0.2,4.1-0.4,8-2.4,10.8c-0.6,0.8,0.5,1.3,1.9,1.3c0,0.9,1,1.7,2,1.7c1,0,2-0.8,2-1.7
								c1.4,0,2.5-0.5,1.9-1.3c-2-2.8-2.2-6.7-2.4-10.8c0.5,1.9,1.5,3.5,3.4,4.8c1.9,1.3,2.6,4.4-0.1,4.7c3.3,3.3,8.8-2.2,2.5-8.5
								c-0.7-0.7-1.3-1.3-1.9-1.8"/>
							<path class="st20" d="M-207.8,57.3c-0.2,1.5-1.2,3.6-2.6,5.2c-2,2.3-4.9,3.3-5.9,1.6c-1.4-0.2-1.4,2.1-0.4,3
								c0.9,0.7,2.5,0.9,3.4,0.4c-3.8,2.8-8,0.3-8-2.5c0-1.3,0.9-3,2.4-2.6c-0.3-0.7-0.9-1.2-1.7-1.2c-2.2,0-4,2.4-4,4.9
								c0,3.1,2.1,6.3,7.3,6.3c6.6,0,10.6-9,11.9-13.9"/>
							<path class="st20" d="M-199.3,57.3c0.2,1.5,1.2,3.6,2.6,5.2c2,2.3,4.9,3.3,5.9,1.6c1.4-0.2,1.4,2.1,0.4,3
								c-0.9,0.7-2.5,0.9-3.4,0.4c3.8,2.8,8,0.3,8-2.5c0-1.3-0.9-3-2.4-2.6c0.3-0.7,0.9-1.2,1.7-1.2c2.2,0,4,2.4,4,4.9
								c0,3.1-2.1,6.3-7.3,6.3c-6.6,0-10.6-9-11.9-13.9"/>
							<path class="st20" d="M-207.8,53.4c-0.3,1.7-1.5,4.4-5.3,4.4c-1.4,0-2.8,0.3-3.6,1.3c-0.7,0.9-1.1,2.7,0,4
								c0.1-1.3,1-2.2,3.3-2.2c3.5,0,6.4-2.3,6.9-5.8"/>
							<path class="st20" d="M-199.3,53.3c0.3,1.7,1.5,4.5,5.3,4.5c1.4,0,2.8,0.3,3.6,1.3c0.7,0.9,1.1,2.7,0,4
								c-0.1-1.3-1-2.2-3.3-2.2c-3.5,0-6.4-2.3-6.9-5.8"/>
							<path class="st21" d="M-206.8,11.6c-3.6,2.2-5.6,4.6-5.6,7.8c0,4,3.3,8.9,3.3,12.2c0,1.6-3.7,3.7-5.1,5.7
								c-0.9,1.2-2.1,6.1-5.4,6.1c-1.1,0-1.8-0.7-1.7-1.5c-1,0.9-0.7,3.1,1.8,3.1c3.1,0,4.9-3.1,5.9-3.1c2.1,0,0.4,5.7,3.8,6.1
								c-0.8-3.9,0.4-6.3,2.3-6.8c0.6,2.5-1.4,13.4-6.3,11.4c0.4,1.5,1.7,2.3,3.1,2.3c4.6,0,5.6-7.7,5.1-10.9"/>
							<path class="st20" d="M-190.8,20.6c2,2.7-0.9,4.9-2.5,2.4"/>
							<path class="st21" d="M-196.3,21.8c-2,3.7-2.6,6.1-2.6,9.8c0,1.6,4.8,3.8,6.2,5.8c0.9,1.2,2.1,6.1,5.4,6.1
								c1.1,0,1.8-0.7,1.7-1.5c1,0.9,0.7,3.1-1.8,3.1c-3.1,0-4.9-3.1-5.9-3.1c-2.1,0-0.4,5.7-3.8,6.1c0.8-3.9-0.4-6.3-2.3-6.8
								c-0.6,2.5,1.4,13.4,6.3,11.4c-0.4,1.5-1.7,2.3-3.1,2.3c-4.6,0-5.6-7.7-5.1-10.9"/>
							<path class="st21" d="M-190.4,44c1.7,2.8,5.6,6.7,9.8,10.5c0.9,0.8,1.9,1.2,2.6,1.4c0.6,0.1,1.7-0.1,2.6-0.1
								c0.7,0,1.2,0.7,1.2,1.3c0,0.7-0.5,1.5-1.4,1.5c-1.1,0-1-1.2-1.5-1.2c-0.6,0-0.9,0.2-1.6,0.1"/>
							<path class="st21" d="M-180.5,55.9c1.2,1.5,4.7,2.6,5,4c0.2,0.7-0.3,1.4-0.9,2c-0.5,0.4-1.5,0.6-2-0.1
								c-0.6-0.9-0.2-2.5-1-3.2c-0.8-0.7-1.6-0.6-2.6-0.8c-0.9-0.2-1.6-0.7-2.2-1.8c-0.4-0.2-1.1-0.3-1.5,0
								c-0.5,0.3-0.9,1.1-1.6,1.1c-0.7,0-1.6-0.5-1.6-1.4c0-1.2,0.7-2.4,1.8-2.4c0.7,0,2.1,0.8,2.9,1.3c-1.8-2.1-5.1-4.4-7.2-6.7
								c-0.5-0.5-2.7-0.6-3.5-1.7"/>
							<path class="st21" d="M-181.9,53.3c0.6,0.5,1.7,0.8,2.5,0.8c1.2,0,2.7-1.3,3.9-1.3c0.8,0,1.6,0.5,1.6,1.2
								c0,0.9-0.6,1.5-1.3,1.5c-0.4,0-0.9-0.5-1.4-0.5c-0.4,0-0.7,0.5-1.1,0.6c-0.3,0.1-0.8,0.1-1.1,0"/>
							<path class="st22" d="M-194.4,45C-194.4,45.1-194.4,45.1-194.4,45C-194.4,45.1-194.4,45.1-194.4,45
								C-194.4,45.1-194.4,45.1-194.4,45c-0.1,0.1-0.1,0.1-0.1,0.2c0,0,0,0,0,0c0.3,0.4,0.7,0.9,1.3,1.2c0,0,0,0,0,0c0,0,0,0,0,0
								c0,0,0,0,0,0c0.1,0,0.1-0.1,0.1-0.2c0,0,0,0,0,0c0,0,0,0,0,0c-0.5-0.4-1-0.8-1.2-1.2c0,0,0,0,0,0
								C-194.3,45.1-194.3,45-194.4,45C-194.3,45-194.4,45-194.4,45z"/>
							<path class="st20" d="M-192.8,20.4c1.7,2.4-0.5,4-2.2,2.7"/>
							<path class="st21" d="M-195,23.1c-0.8-0.6-1.4-1.8-2.5-1.8c-0.6,0-1,0.4-1.2,0.8"/>
							<path class="st22" d="M-208.3-5.1c0.5,0.3,1,0.8,1.3,1.3c0.1-0.3,0.3-0.6,0.2-1.2C-207.2-5-207.7-5.1-208.3-5.1z"/>
							<path class="st21" d="M-211,15.1c-0.3-0.3-1.4-1-2.5-1c-2.6,0-4.4,1.9-6.7,1.9c-3.2,0-5.3-2.5-5.3-5.5c0-3.5,4-4.5,4-6.5
								c0-1.6-1.6-2.7-3.5-3.5c-2.7-1.1-5.8-3.4-2.9-5.9c-3.8,0.6-2.4,5.8,1,6.8"/>
							<path class="st21" d="M-202.8,2.5c0,1.1-0.9,1.7-2.5,1.6c-1.6-0.1-3.7-0.1-5.2,0.4c0.3-2.3,4-3.2,6.5-2.9
								c0.3-2.1-1.7-4-5.2-3.4c-1.4-1.2-3.8,0.1-3.9,1.7c-1.9-2.3-0.3-5.2,2.7-5.2c0.7,0,1.4,0.1,2,0.2c0.7,0.5,1.4,1,1.8,1.8"/>
							<path class="st21" d="M-200.8,14c0.6-0.4,1.7-1,3.8-1c4.4,0,5.3,3,10.2,3c3.2,0,5.3-2.5,5.3-5.5c0-3.5-4-4.5-4-6.5
								c0-1.6,1.6-2.7,3.5-3.5c2.7-1.1,5.8-3.4,2.9-5.9c3.8,0.6,2.5,5.8-1,6.8"/>
						</g>
						<g>
							<path class="st20" d="M-216.7,0.4c0.6,0.6,1.4,1.1,2.7,1.1c1.8,0,4.4-2.3,6.5-2.3c1.8,0,3.1,0.8,4,1.6l-0.3,2.2
								c-0.6-0.6-1.9-2.2-3.7-2.2c-2,0-4.3,2.1-6.3,2.1C-215.4,2.8-216.6,1.2-216.7,0.4z"/>
						</g>
						<g>
							<path class="st19" d="M-211.8,46.8c0.4,0.6-0.9-4.7-2-5.2c-1-0.4-4,3-3.2,2.6c-1.6,2.5-4.8,5.8-8.4,9.1
								c-0.6,0.4-1.6,0.7-2.2,0.7c-0.6,0-1.2-0.3-1.9-0.6c-0.7-0.3-1.4-0.6-2-0.6c-0.4,0-0.8,0.1-1.1,0.3c-0.3-0.2-0.7-0.3-1.1-0.3
								c-1.2,0.1-2.2,1.5-0.8,2.5c-0.2-0.7,0.5-1.3,1.4-0.9c0.1,0.7,0.7,1.2,1.4,1.2c0.2,0,0.5-0.1,0.7-0.3c0.2-0.1,0.5-0.2,0.7-0.2
								c0.1,0,0.3,0.1,0.5,0.2c0.2,0.1,0.3,0.3,0.6,0.3c0.1,0,0.2,0.1,0.4,0.1c0,0-0.1,0-0.2,0c-0.5,0.1-1.6-0.1-2.6-0.1
								c-0.4,0-0.8,0.2-1,0.5c-0.2-0.1-0.4-0.1-0.6-0.1c-0.1,0-0.2,0-0.3,0c-0.6,0-1.1,0.3-1.4,0.8c-0.5,0.7-0.4,2,0.8,2.3
								c-0.4-0.9,0.3-1.7,1.4-1.4c0.1,0.1,0.1,0.2,0.2,0.3c0.2,0.3,0.6,0.5,1.1,0.5c0.3,0,0.5-0.1,0.7-0.2c0.2-0.1,0.3-0.3,0.4-0.4
								c0.1-0.2,0.2-0.3,0.2-0.4c0.1-0.1,0.1-0.2,0.2-0.2c0.3,0,0.5,0,0.7,0.1c0.2,0,0.3,0,0.5,0c-0.2,0.1-0.4,0.2-0.5,0.3
								c-0.5,0.3-1.1,0.6-1.5,1c-0.4,0.3-0.7,0.7-0.8,1c0,0.1,0,0.3,0,0.4c-0.6,0.4-1,1.1-1.1,1.7c-0.1,0.8,0.6,1.8,1.9,1.7
								c-0.6-0.5-0.5-1.4,0.2-1.8c0.2,0.2,0.6,0.4,1,0.4c0.4,0,0.8-0.1,1.1-0.5c0.3-0.5,0.4-1.1,0.5-1.7c0.1-0.6,0.2-1.2,0.6-1.5
								c0.4-0.3,0.8-0.5,1.2-0.6c0.4-0.1,0.8-0.1,1.4-0.2c0.9-0.2,1.6-0.8,2.2-1.8c0.4-0.2,1-0.2,1.5,0c0.2,0.1,0.4,0.4,0.7,0.6
								c0.3,0.2,0.6,0.5,0.9,0.5c0.4,0,0.8-0.1,1.1-0.4c0.3-0.3,0.6-0.6,0.6-1.1c0-0.1,0-0.1,0-0.2c0.8-0.5,1.7,0,1.7,1
								c1-1,0.8-2,0.2-2.5c-0.4-0.3-1-0.5-1.7-0.5c-0.3,0-0.6,0.1-0.9,0.2c-0.3-0.3-0.7-0.5-1.1-0.5c-0.4,0-0.9,0.2-1.4,0.5
								c-0.3,0.2-0.6,0.3-0.9,0.5C-215.2,46.4-211.9,46.7-211.8,46.8z"/>
							<g transform="matrix(-1,0,0,1,162.705,0)">
								<path class="st19" d="M358.3,46.8c0.2,0.1-0.9-4.7-2-5.2c-1-0.4-4,3-3.2,2.6c-1.6,2.5-4.8,5.8-8.4,9.1
									c-0.6,0.4-1.6,0.7-2.2,0.7c-0.6,0-1.2-0.3-1.9-0.6c-0.7-0.3-1.4-0.6-2-0.6c-0.4,0-0.8,0.1-1.1,0.3c-0.3-0.2-0.7-0.3-1.1-0.3
									c-1.2,0.1-2.2,1.5-0.8,2.5c-0.2-0.7,0.5-1.3,1.4-0.9c0.1,0.7,0.7,1.2,1.4,1.2c0.2,0,0.5-0.1,0.7-0.3
									c0.2-0.1,0.5-0.2,0.7-0.2c0.1,0,0.3,0.1,0.5,0.2c0.2,0.1,0.3,0.3,0.6,0.3c0.1,0,0.2,0.1,0.4,0.1c0,0-0.1,0-0.2,0
									c-0.5,0.1-1.6-0.1-2.6-0.1c-0.4,0-0.8,0.2-1,0.5c-0.2-0.1-0.4-0.1-0.6-0.1c-0.1,0-0.2,0-0.3,0c-0.6,0-1.1,0.3-1.4,0.8
									c-0.5,0.7-0.4,2,0.8,2.3c-0.4-0.9,0.3-1.7,1.4-1.4c0.1,0.1,0.1,0.2,0.2,0.3c0.2,0.3,0.6,0.5,1.1,0.5c0.3,0,0.5-0.1,0.7-0.2
									c0.2-0.1,0.3-0.3,0.4-0.4c0.1-0.2,0.2-0.3,0.2-0.4c0.1-0.1,0.1-0.2,0.2-0.2c0.3,0,0.5,0,0.7,0.1c0.2,0,0.3,0,0.5,0
									c-0.2,0.1-0.4,0.2-0.5,0.3c-0.5,0.3-1.1,0.6-1.5,1c-0.4,0.3-0.7,0.7-0.8,1c0,0.1,0,0.3,0,0.4c-0.6,0.4-1,1.1-1.1,1.7
									c-0.1,0.8,0.6,1.8,1.9,1.7c-0.6-0.5-0.5-1.4,0.2-1.8c0.2,0.2,0.6,0.4,1,0.4c0.4,0,0.8-0.1,1.1-0.5c0.3-0.5,0.4-1.1,0.5-1.7
									c0.1-0.6,0.2-1.2,0.6-1.5c0.4-0.3,0.8-0.5,1.2-0.6c0.4-0.1,0.8-0.1,1.4-0.2c0.9-0.2,1.6-0.8,2.2-1.8c0.4-0.2,1-0.2,1.5,0
									c0.2,0.1,0.4,0.4,0.7,0.6c0.3,0.2,0.6,0.5,0.9,0.5c0.4,0,0.8-0.1,1.1-0.4c0.3-0.3,0.6-0.6,0.6-1.1c0-0.1,0-0.1,0-0.2
									c0.8-0.5,1.7,0,1.7,1c1-1,0.8-2,0.2-2.5c-0.4-0.3-1-0.5-1.7-0.5c-0.3,0-0.6,0.1-0.9,0.2c-0.3-0.3-0.7-0.5-1.1-0.5
									c-0.4,0-0.9,0.2-1.4,0.5c-0.3,0.2-0.6,0.3-0.9,0.5C349.6,52.2,355,45.4,358.3,46.8z"/>
							</g>
						</g>
						<g>
							<path class="st24" d="M-202.8,2.5c0,1.1-0.9,1.7-2.5,1.6c-1.6-0.1-3.7-0.1-5.2,0.4c0.3-2.3,4-3.2,6.5-2.9
								c0.3-2.1-1.7-4-5.2-3.4c-1.4-1.2-3.8,0.1-3.9,1.7c-1.9-2.3-0.3-5.2,2.7-5.2c0.7,0,1.4,0.1,2,0.2c0.7,0.5,1.4,1,1.8,1.8
								c0.4,0.9,1.5,1.4,2.6,1.9C-203.1-0.2-202.8,1.1-202.8,2.5z"/>
						</g>
						<g>
							<path class="st20" d="M-233.7,52.8c-1.2,0.1-2.2,1.5-0.8,2.5c-0.2-0.8,0.7-1.4,1.7-0.7c0.4-0.2,0.7-0.9,0.4-1.4
								C-232.8,52.9-233.3,52.8-233.7,52.8z M-173.4,52.8c-0.4,0-0.9,0.1-1.3,0.5c-0.3,0.4,0,1.2,0.4,1.4c1-0.7,1.9-0.1,1.7,0.7
								C-171.2,54.2-172.2,52.8-173.4,52.8z M-217.9,53.4c-0.4,0-0.8,0.1-1.1,0.3c-0.7,0.6-0.4,1.8,0.5,2.1c0.8-1,2.1-0.5,2.1,0.6
								c1-1,0.8-2,0.2-2.5C-216.7,53.5-217.3,53.4-217.9,53.4z M-189.6,53.4c-0.5,0-1,0.2-1.3,0.5c-0.6,0.5-0.8,1.5,0.2,2.5
								c-0.1-1.1,1.3-1.6,2.1-0.6c0.9-0.3,1.1-1.5,0.5-2.1C-188.6,53.5-189.1,53.4-189.6,53.4z M-233.5,56.2c-0.1,0-0.2,0-0.3,0
								c-0.6,0-1.1,0.3-1.4,0.8c-0.5,0.7-0.4,2,0.8,2.3c-0.4-0.9,0.4-1.9,1.8-1.3c0.4-0.3,0.5-1.2,0.1-1.6
								C-232.8,56.2-233.2,56.2-233.5,56.2z M-173.8,56.2c-0.3,0-0.5,0.1-0.8,0.2c-0.4,0.4-0.4,1.3,0.1,1.6c1.3-0.6,2.2,0.4,1.8,1.3
								c1.2-0.3,1.3-1.6,0.8-2.3C-172.3,56.4-173,56.1-173.8,56.2z M-231.2,60c-1,0.3-1.6,1.2-1.7,2c-0.1,0.8,0.6,1.9,1.9,1.7
								c-0.8-0.7-0.2-2,1-1.9C-229.6,61-230.3,60-231.2,60z M-176,60c-0.9,0-1.6,1-1.2,1.8c1.2-0.1,1.8,1.2,1,1.9
								c1.2,0.2,1.9-0.9,1.9-1.7C-174.3,61.2-175,60.3-176,60z"/>
						</g>
						<polygon class="st25" points="-243.2,-9.4 -243.2,-9.4 -243.2,-9.4 						"/>
					</g>
				</g>
			</g>
		</g>
	</g>
</g>
</svg>
